<?xml version="1.0" encoding="utf-8"?>
<!-- Generator: Adobe Illustrator 25.0.1, SVG Export Plug-In . SVG Version: 6.00 Build 0)  -->
<svg version="1.1" id="Capa_1" xmlns="http://www.w3.org/2000/svg" xmlns:xlink="http://www.w3.org/1999/xlink" x="0px" y="0px"
	 viewBox="0 0 603.8 578" style="enable-background:new 0 0 603.8 578;" xml:space="preserve">
<style type="text/css">
	.st0{fill:#959492;}
	.st1{opacity:0.8;}
	.st2{opacity:0.6;}
</style>
<g>
	<g>
		<path class="st0" d="M342.2,578c-6.4,0-12.8-2.4-17.7-7.3c-9.8-9.8-9.8-25.6,0-35.4L541.8,318c7.7-7.7,11.9-18,11.9-29
			s-4.2-21.3-11.9-29L324.5,42.7c-9.8-9.8-9.8-25.6,0-35.4c9.8-9.8,25.6-9.8,35.4,0l217.3,217.3c17.1,17.1,26.6,40,26.6,64.3
			s-9.4,47.2-26.6,64.3L359.9,570.7C355,575.6,348.6,578,342.2,578z"/>
	</g>
	<g class="st1">
		<path class="st0" d="M183.6,578c-6.4,0-12.8-2.4-17.7-7.3c-9.8-9.8-9.8-25.6,0-35.4L383.2,318c7.7-7.7,11.9-18,11.9-29
			s-4.2-21.3-11.9-29L165.9,42.7c-9.8-9.8-9.8-25.6,0-35.4c9.8-9.8,25.6-9.8,35.4,0l217.3,217.3c17.1,17.1,26.6,40,26.6,64.3
			s-9.4,47.2-26.6,64.3L201.3,570.7C196.4,575.6,190,578,183.6,578z"/>
	</g>
	<g class="st2">
		<path class="st0" d="M25,578c-6.4,0-12.8-2.4-17.7-7.3c-9.8-9.8-9.8-25.6,0-35.4L224.7,318c7.7-7.7,11.9-18,11.9-29
			s-4.2-21.3-11.9-29L7.3,42.7c-9.8-9.8-9.8-25.6,0-35.4c9.8-9.8,25.6-9.8,35.4,0L260,224.7c17.1,17.1,26.6,40,26.6,64.3
			s-9.4,47.2-26.6,64.3L42.7,570.7C37.8,575.6,31.4,578,25,578z"/>
	</g>
</g>
</svg>
