<?xml version="1.0" encoding="utf-8"?>
<!-- Generator: Adobe Illustrator 25.0.1, SVG Export Plug-In . SVG Version: 6.00 Build 0)  -->
<svg version="1.1" id="Capa_1" xmlns="http://www.w3.org/2000/svg" xmlns:xlink="http://www.w3.org/1999/xlink" x="0px" y="0px"
	 viewBox="0 0 468.8 326.6" style="enable-background:new 0 0 468.8 326.6;" xml:space="preserve">
<style type="text/css">
	.st0{fill:#DEF1FB;}
	.st1{fill:#2573B6;}
	.st2{fill:#A7D7F5;}
</style>
<g>
	<path class="st0" d="M183.7,159.4c0.5,0.4,0.5,0.9,0.4,1.5c-0.3,2.2-0.6,4.5-0.7,6.7c-0.5,10.9,1.8,21.2,6.1,31.1
		c2.7,6.4,6.5,12.2,10.5,17.8c5.2,7.4,11.5,13.9,18.2,20c14.6,13.3,31.1,23.8,48.8,32.6c20.7,10.2,42.3,17.8,64.6,23.6
		c14.9,3.9,30,7.1,45.3,9.3c3.6,0.5,7.2,1.1,10.8,1.3c2.9,0.1,4.6-2.2,3.6-4.8c-0.7-1.8-2.2-2.1-3.9-2.3c-10.7-1.2-21.3-3-31.9-5.2
		c-18.5-3.8-36.7-8.8-54.4-15.2c-12.4-4.5-24.5-9.6-36.2-15.7c-12.9-6.8-25.2-14.5-36.4-24c-11.2-9.4-21.1-19.9-28.6-32.5
		c-5.8-9.8-9.4-20.4-9.7-31.9c0-1.8-0.2-3.7,0.3-5.7c0.6,0.5,1,0.8,1.4,1.1c7.5,6.6,15.4,12.6,23.8,17.9c14.9,9.4,31,15.9,48.4,18.7
		c10.7,1.7,21.4,1.7,32,0.3c12.3-1.7,23.7-5.6,33.9-12.8c3.3-2.3,6.2-5,8.8-8.1c4.7-5.6,7.9-12,9.1-19.2c1.4-8.1-2-13.4-5.3-20.9
		c0.4-0.2,0.5-2.2,0.7-1.7c0.3,1.2,3.5,0.7,4.6,0.5c1-0.2,2,0.2,3,0.2c20.6,0,41.1-0.1,61.7,0.1c4.5,0,9,0.7,13.4,2
		c2.3,0.7,4.6,1.6,6.9,2.2c1.6,0.5,2.8,1.6,4.2,2c2.9,0.8,4.8,3.4,7.7,4c0.3,0.1,0.7,0.3,0.9,0.6c1,1.7,2.7,2.6,4,3.9
		c2,1.9,4.1,3.7,5.8,5.8c2,2.6,4.1,5.1,5.8,7.9c0.9,1.4,1.8,2.8,2.7,4.2c0.9,1.5,1.1,2.9,1.7,4.4c1.3,3.4,2.3,6.9,3,10.5
		c1.2,6,1.5,12,0.9,18.1c-0.3,3.5-1.4,6.8-1.6,10.2c-0.1,1.8-1,3.1-1.7,4.6c-1.3,2.6-1.9,5.6-3.5,8c-1.4,2.3-2.4,4.9-4.5,6.9
		c-1.6,1.6-2.9,3.5-4.4,5.3c0,0,0,0.1-0.1,0.1c-3.6,1.8-2.1,4.8-1.8,7.4c0.7,5.4,1,10.8,0.6,16.3c-0.4,4.9-1.2,9.7-2.6,14.4
		c-1.2,3.9-2.6,7.8-4.9,11.2c-1.2,1.8-2,3.8-3.3,5.5c-2.8,3.6-5.3,7.4-8.9,10.4c-2.9,2.5-5.6,5.1-8.7,7.2c-3.2,2.1-6.6,3.9-10,5.6
		c-4.2,2.1-8.7,3.4-13.3,4.3c-4,0.8-8.2,1.4-12.3,1.4c-88.5,0-177,0-265.5,0c-7,0-14-0.8-20.6-3.1c-3-1-6.1-1.4-9-3
		c-1.3-0.8-2.3-1.9-3.7-2.6c-2.4-1.2-4.5-3-6.8-4.3c-2.8-1.6-4.8-4.1-7.1-6.2c-3.2-2.9-6.1-6.2-8.8-9.7c-1.4-1.7-2-3.7-3-5.6
		c-2.1-3.7-3.2-7.9-4.6-11.9c-0.8-2.4-1.8-4.8-2-7.3c-0.3-3.4-1.2-6.8-0.8-10.3c0.1-1.1-0.2-1.7-1.4-1.8c-3.1-0.3-6.2-0.6-9.2-1.4
		c-3.8-0.9-7.4-2.1-11-3.7c-4-1.8-7.4-4.4-11.2-6.5c-4.2-2.3-7-6-10.1-9.3c-1.6-1.6-3-3.4-4.4-5.2c-1-1.2-1.7-2.8-2.4-4.2
		C5.6,227.3,4,224,3,220.4c-0.4-1.6-0.6-3.2-1.1-4.7c-1.4-4.1-1.7-8.5-1.8-12.7c-0.1-4.4,0.3-8.9,1.2-13.2c0.7-3.1,1.3-6.3,2.5-9.2
		c1.2-3,2.4-6.1,4.4-8.8c1.2-1.7,2.2-3.5,3.4-5.2c2.3-3.1,4.6-6.2,7.7-8.7c1.5-1.3,3-2.6,4.6-3.8c2.6-2,5.4-3.6,8.2-5.2
		c2.1-1.2,4.3-2.2,6.5-2.9c3.5-1.3,7-2.5,10.7-2.9c17.9-2,35.8-0.5,53.7-0.9c9.9-0.2,19.8,0,29.7,0c1,0,13.4-0.3,14-0.3
		c6,0,11.9,0,17.9,0c1.1,0,5.1,0.3,5.1-0.7 M142.1,238.1c0-9.4-2.2-17.5-7.6-24.6c-7.1-9.4-16.9-14.1-28.2-16.3
		c-6.5-1.2-13-1.5-19.5-2.6c-4.4-0.8-8.7-2-12.2-5c-1.7-1.5-3.3-1.8-4.7-1c-1.4,0.8-2,2.3-1.7,4.4c1.9,11.4,5.1,22.4,10.9,32.4
		c4.1,7.1,9.3,13.2,16.2,17.8c4.5,3,9.6,4.9,14.7,6.4c9.1,2.6,18.3,3.3,27.5,0.1c0.7-0.3,1.4-0.2,2.1,0.1c3.6,1.6,7.3,3,11.1,4.1
		c2.4,0.7,4.3-0.2,5-2.2c0.6-2-0.6-3.8-3-4.5c-3.5-1-6.8-2.2-10.1-3.7c-0.7-0.3-0.9-0.7-0.8-1.4C142,240.5,142,239,142.1,238.1z
		 M397.6,209.3C397.6,209.3,397.6,209.3,397.6,209.3c0,1.9,0,3.8,0,5.7c0,1,0.4,1.7,1.2,2.3c1.1,0.8,2.2,0.9,3.3,0.3
		c1.2-0.6,2-1.6,2-3c0-3.6,0-7.3,0-10.9c0-1.1,0.3-1.5,1.5-1.5c3.6,0.1,7.2,0,10.8,0c2,0,3.5-1.4,3.5-3.1c0-2.1-1.2-3.6-3.3-3.6
		c-3.5,0-7.1-0.3-10.6,0.2c-1.3,0.2-1.8-0.4-1.8-1.7c0-3.6,0-7.3,0-10.9c0-2-1.4-3.3-3.4-3.3c-1.9,0-3,1.2-3,3.3c0,3.4,0,6.9,0,10.3
		c0,2.1,0,2.1-2.2,2.2c-3.7,0.1-7.5-0.4-11.2,0.3c-2.5,0.4-3.5,2.9-2,5c0.9,1.3,2.3,1.4,3.7,1.5c3.4,0.1,6.9,0.1,10.3,0
		c1,0,1.5,0.3,1.4,1.4C397.6,205.5,397.6,207.4,397.6,209.3z M306.3,243.9c-0.8,0.1-1.4,0.4-1.7,1.1c-0.3,0.8-0.3,1.5,0.3,2.1
		c0.4,0.4,1,0.8,1.5,1.1c6.5,3.8,13.2,7.2,20.1,10.2c14.1,6,28.7,10.4,43.6,13.9c1.5,0.3,3,0.7,4.5,0.9c1.1,0.2,2.1-0.3,2.3-1.5
		c0.2-1.2-0.4-2-1.5-2.3c-0.4-0.1-0.9-0.2-1.3-0.3c-8.9-1.9-17.7-4.2-26.4-7c-13.6-4.4-26.8-9.9-39.1-17.2
		C307.9,244.4,307.2,243.9,306.3,243.9z M120.5,298c2.8,0.5,5.4-2.3,5.4-5.6c0-3.3-2.7-5.3-5.1-5.4c-2.9-0.1-5.9,2.5-5.7,5.5
		C115.2,295.7,117.3,298,120.5,298z"/>
	<path class="st0" d="M144.9,117.6c-4.7,0.1-9.4,0.1-14.2,0c-1,0-2,0.6-3,0.2c-0.3-0.1-4.1-0.5-4.3-0.1c-0.2,0.3,2.8,1.2-1.2-6
		c-3.4-6.2-6.5-12.5-9.4-19c-0.5-1.2-1.4-1.8-2.7-1.4c-0.9,0.3-1.3,1.9-0.9,2.9c1.7,3.6,3.2,7.3,5,10.9c2.3,4.6,6.2,8.9,8.6,13.4
		c-2.1-1.4-5.9-0.8-8.2-0.8c-23,0-45.9,0-68.9,0c-2.8,0-5.4-0.7-8.2-1.6c-2.9-0.9-5.4-2.5-7.9-4.1c-1.8-1.3-3.3-3-4.8-4.7
		c-2-2.4-3.3-5.1-4.5-7.8c-0.9-2.1-1.3-4.5-1.4-6.8c-0.2-3.6,0-7.3,1-10.8c0.8-2.8,2.1-5.4,3.9-7.8c1.3-1.6,2.3-3.4,4-4.8
		c4.2-3.4,8.6-6.3,14.1-6.7c1.2-0.1,2.4-0.6,3.6-0.6c0.7,0,0.8-0.7,0.8-1.3c-0.1-3,0.8-5.9,1.7-8.6c0.8-2.5,2.4-4.8,3.9-7
		c2.1-3.2,5.1-5.4,8.2-7.4c1.9-1.2,4-2.1,6.2-2.7c1-0.2,2.2-0.1,3.1,0.1c2,0.4,3.9-0.1,5.9-0.1c3.6-0.1,7.2,0,10.8-0.1
		c1.2,0,1.2,0.9,1.2,1.7c0.2,0,0.4-0.1,0.4-0.1c0.4-2.1,0.4-2.1,2.4-1.6c0.1,0.6,0.3,1.2,0.4,1.8c1.5,8.1,4.3,15.7,9.2,22.4
		c4.1,5.5,9.3,9.7,15,13.3c6.9,4.3,14.4,7.2,22.7,7.3c1.5,0,2.6,0.4,3.7,1.4c2.7,2.6,5.8,4.9,8.9,7c1.9,1.2,4.1,0.8,5.2-0.9
		c1.1-1.7,0.5-3.8-1.4-5c-2.7-1.8-5.1-3.9-7.6-5.9c-1.4-1.1-1.5-2-0.8-3.6c3.4-7.9,4.5-16,2.8-24.5c-0.9-4.3-2.8-8.1-4.8-11.9
		c0.1-0.6,0.5-1.6,1-1.2c1.6,1.1,3.1-0.1,4.6-0.1c38.7,0.1,77.3,0.1,116,0c3.5,0,6.9-0.1,10.3,0.7c0.7,0.2,2.8,1,3.6,1.6
		c2.6,1.7,5.3,3.4,7.5,5.7c4.7,5,7.4,10.8,7.8,17.7c0.1,1.3,0.7,1.5,1.7,1.5c10.8,0,21.5,0,32.3,0c28.3,0,56.6,0,84.9,0
		c1.7,0,3.4,0.1,5.2,0.1c1.7,0,3.2,1,4.9,1.5c3.5,1.1,6.7,3,9.4,5.5c2.5,2.4,4.9,5.1,6.3,8.4c0.4,0.9,0.7,1.8,1.6,2.3
		c0.3,0.2,0.6,0.6,0.6,0.9c-0.3,3,1,5.9,1,8.9c0,2.5-0.4,4.9-1.1,7.4c-1,3.6-2.6,7-4.7,10c-2.2,3.1-5.2,5.5-8.6,7.3
		c-4.4,2.3-9.1,3.4-14.2,3.4c-27.5-0.1-55,0-82.5-0.1c-1.3,0-9.5,0-10.7,0.6c-5.4-4-4.1-7.3-10.2-10.2c-17.6-8.4-36.1-11.3-55.4-8.6
		c-20.7,3-42.3,18.6-41.3,18.3c-1.6,0-3.1-0.2-4.7-0.2c-14,0-28.1,0-42.1,0c-0.4,0-0.8,0-1.2,0 M154.2,118.2c-1-1,4.4,0.8,3.6-0.4
		c-2.8-4.1-5.6-8.2-8.2-12.4c-0.9-1.4-2-2.2-3.7-1.8c-2.6,0.5-3.7,3.1-2.1,5.6 M212.3,58.3c-2.1,0-3.7,1.7-3.7,3.7
		c0,1.9,1.8,3.7,3.6,3.7c1.7,0,3.9-1.8,3.8-3.6C216,59.9,214.5,58.3,212.3,58.3z"/>
	<path class="st1" d="M143.3,36.1c2,3.8,3.9,7.6,4.8,11.9c1.8,8.5,0.6,16.6-2.8,24.5c-0.7,1.6-0.6,2.5,0.8,3.6c2.5,2,5,4.1,7.6,5.9
		c1.8,1.3,2.4,3.3,1.4,5c-1,1.7-3.3,2.2-5.2,0.9c-3.2-2.1-6.2-4.4-8.9-7c-1.1-1-2.2-1.4-3.7-1.4c-8.3-0.1-15.8-3-22.7-7.3
		c-5.7-3.6-10.9-7.8-15-13.3c-5-6.7-7.7-14.3-9.2-22.4c-0.1-0.6-0.3-1.2-0.4-1.8c-0.5-4.8-1-9.7-0.9-14.6c0.1-5.8,0.6-11.6,1.7-17.3
		c0.3-1.6,1.3-2.6,2.8-2.9c1.6-0.3,3,0.3,3.7,1.7c2.3,4.6,6.3,7.3,10.6,9.5c4.4,2.3,8.9,4.4,13.4,6.5c7.8,3.8,14.9,8.7,20.1,15.8
		c0,0.2,0,0.3,0.2,0.3C142.3,34.6,142.8,35.3,143.3,36.1z M132,71.8c-0.7-0.8-1.1-1.4-1.6-2C121,59,113.2,47.1,106.2,34.6
		c-1-1.8-0.5-4.1,1.2-5c1.7-0.9,3.9-0.3,4.9,1.5c2.8,5.1,5.8,10,9,14.8c5.1,7.8,10.7,15.3,16.9,22.2c0.7,0.7,1.1,1.1,1.5-0.2
		c4.7-12.9,2.1-25.4-8.1-35.2c-5.1-4.9-11.3-7.9-17.5-10.9c-5.6-2.6-11.3-5.1-16.2-9c-0.3-0.2-0.6-0.6-0.9-0.4
		c-0.4,0.2-0.3,0.7-0.3,1.1c-0.5,6-0.5,12.1,0.3,18.1c0.8,5.9,2.1,11.7,4.8,17.1c5.1,10.1,13.6,16.5,23.6,21.1
		C127.4,70.8,129.5,71.5,132,71.8z"/>
	<path class="st1" d="M121.5,118.6c-2.4-4.5-4.9-9-7.2-13.6c-1.8-3.6-3.4-7.2-5-10.9c-0.5-1,0-2.6,0.9-2.9c1.3-0.4,2.2,0.2,2.7,1.4
		c2.8,6.5,5.9,12.8,9.4,19c4,7.3,8.3,14.4,13.1,21.1c0.2,0.2,0.4,0.4,0.6,0.7c0,0,0.1,0.1,0.1,0.1l0.1,0c0,0,0,0.1,0,0.1
		c1.5,2.5,3.3,4.8,5.2,6.9c2.4,3.2,5.2,6,8.1,8.8c1.6,1.5,1.9,2.7,1,3.6c-1,1-2,0.8-3.7-0.8c-3.7-3.5-7.1-7.4-10.4-11.3
		c-0.1-0.1-0.2-0.3-0.3-0.4c-0.1-0.1-0.2-0.3-0.4-0.4c-0.1-0.2-0.2-0.3-0.3-0.5c-0.4-0.7-0.9-1.4-1.5-2c-3.5-4.9-6.9-9.9-10-15.1
		c-0.4-0.9-0.9-1.7-1.5-2.4c-0.2-0.3-0.3-0.6-0.5-0.8c-0.1-0.2-0.2-0.3-0.3-0.5C121.6,118.6,121.6,118.6,121.5,118.6z"/>
	<path class="st2" d="M321.9,34c0-4.2,3.2-7.2,7.6-7.2c3.7,0,7.1,3.5,7.1,7.2c0,4.6-3.7,7.7-7.7,7.6C325.2,41.5,321.5,38.1,321.9,34
		z M329.2,30.2c-2.3,0-3.9,1.7-3.9,4c0,2.2,1.6,4,3.8,4c2.3,0,4.2-1.8,4.2-4C333.3,31.9,331.6,30.2,329.2,30.2z"/>
	<path class="st0" d="M141.9,33.8c-0.2,0-0.3-0.1-0.2-0.3C141.7,33.7,141.8,33.8,141.9,33.8z"/>
	<path class="st1" d="M142.1,238.1c-0.1,0.9-0.1,2.4-0.3,3.9c-0.1,0.7,0.2,1.1,0.8,1.4c3.3,1.5,6.6,2.7,10.1,3.7
		c2.4,0.7,3.6,2.5,3,4.5c-0.6,2.1-2.5,2.9-5,2.2c-3.8-1.1-7.5-2.4-11.1-4.1c-0.7-0.3-1.3-0.4-2.1-0.1c-9.2,3.2-18.4,2.6-27.5-0.1
		c-5.2-1.5-10.2-3.4-14.7-6.4c-6.9-4.6-12.1-10.7-16.2-17.8c-5.8-10.1-9.1-21-10.9-32.4c-0.3-2.1,0.3-3.6,1.7-4.4
		c1.4-0.8,3-0.5,4.7,1c3.5,3.1,7.8,4.3,12.2,5c6.5,1.1,13,1.4,19.5,2.6c11.3,2.2,21.1,6.9,28.2,16.3
		C139.9,220.6,142.1,228.7,142.1,238.1z M124.6,244.7c1,0,2.1,0,3.1,0c0.3,0,0.8,0.1,0.9-0.4c0.1-0.4-0.4-0.5-0.7-0.7
		c-6.5-3.7-12.6-7.9-18.5-12.4c-5.8-4.4-11.5-8.9-16.7-14c-1.6-1.6-1.8-3.8-0.4-5.2c1.3-1.3,3.5-1.3,5.1,0.1
		c7.3,6.7,15,12.8,23.1,18.5c4.2,2.9,8.6,5.6,13,8.2c1.2,0.7,1.5,0.5,1.5-0.9c0-1.7-0.1-3.5-0.3-5.2c-1.1-8.6-4.9-15.6-11.7-21
		c-7-5.5-15.3-7.5-23.8-8.6c-7.2-0.9-14.6-1.3-21.6-3.8c-0.9-0.3-1.1-0.1-0.9,0.8c1.6,6.3,3.7,12.4,6.6,18.2
		c3.1,6.2,6.9,11.9,12.3,16.3C104,241.5,114,244.2,124.6,244.7z"/>
	<path class="st2" d="M397.6,209.3c0-1.9-0.1-3.8,0-5.7c0-1.1-0.4-1.4-1.4-1.4c-3.4,0.1-6.9,0.1-10.3,0c-1.4,0-2.8-0.1-3.7-1.5
		c-1.4-2.1-0.5-4.6,2-5c3.7-0.6,7.5-0.2,11.2-0.3c2.2-0.1,2.2,0,2.2-2.2c0-3.4,0-6.9,0-10.3c0-2.1,1.1-3.2,3-3.3
		c2,0,3.4,1.3,3.4,3.3c0,3.6,0,7.3,0,10.9c0,1.3,0.6,1.9,1.8,1.7c3.5-0.5,7.1-0.2,10.6-0.2c2.1,0,3.3,1.5,3.3,3.6
		c0,1.7-1.5,3.1-3.5,3.1c-3.6,0-7.2,0.1-10.8,0c-1.2,0-1.5,0.3-1.5,1.5c0.1,3.6,0,7.3,0,10.9c0,1.5-0.8,2.4-2,3
		c-1.1,0.6-2.3,0.4-3.3-0.3c-0.8-0.6-1.2-1.3-1.2-2.3C397.6,213.1,397.6,211.2,397.6,209.3C397.6,209.3,397.6,209.3,397.6,209.3z"/>
	<path class="st1" d="M306.3,243.9c0.9,0,1.5,0.5,2.2,1c12.3,7.4,25.5,12.8,39.1,17.2c8.7,2.8,17.5,5.1,26.4,7
		c0.5,0.1,0.9,0.2,1.3,0.3c1.1,0.3,1.7,1.1,1.5,2.3c-0.2,1.2-1.1,1.7-2.3,1.5c-1.5-0.2-3-0.6-4.5-0.9c-14.9-3.4-29.5-7.9-43.6-13.9
		c-6.9-3-13.6-6.4-20.1-10.2c-0.5-0.3-1.1-0.7-1.5-1.1c-0.6-0.6-0.7-1.4-0.3-2.1C304.9,244.3,305.6,244,306.3,243.9z"/>
	<path class="st1" d="M212.3,58.3c2.1,0,3.7,1.6,3.7,3.8c0.1,1.7-2.1,3.6-3.8,3.6c-1.9,0-3.6-1.8-3.6-3.7
		C208.6,60,210.2,58.3,212.3,58.3z"/>
	<path class="st0" d="M342.2,140.9c1.7,2.3-2.6,4.4-1.9,7.1c3.5,13-0.1,24-9.5,33.3c-6.9,6.8-15.3,10.9-24.6,13.4
		c-14.9,4.1-30,4.1-45.1,1.3c-6.6-1.2-13-3.3-19.3-5.6c-3.3-1.2-6.6-2.5-9.7-4.1c-8.1-4.3-15.9-9-23.3-14.5
		c-4.2-3.1-8.1-6.4-12.1-9.7c-1.5-1.2-2.9-2.7-4.3-4.1c-0.4-0.4-0.6-0.8-0.4-1.4c1.6-5.8,1-10.1,4.3-15.1c0.2,0.4,3.4-0.2,3.4,0.3
		c0,0,0,0.1-0.1,0.1c0,0,0-0.1,0.1-0.1c41.4,0,82.8,0,124.2,0c3.8,0,7.6,0,11.4,0C336.4,142,342.3,142.2,342.2,140.9z"/>
	<path class="st0" d="M316.3,116.7c-0.3,0.6-0.9,1.4-1.3,1.3c-1.6-0.3-5.9-0.3-7.5-0.3c-26.3,0-52.6,0-78.9,0
		c-1.9,0-5.6-0.3-7.5-0.1c4.6-3.1,11.4-4.7,16.6-6.6c11.9-4.4,24.2-6.2,36.9-5.3c9.6,0.7,18.9,2.9,27.8,6.6
		C306.1,113.8,312.8,114.4,316.3,116.7z"/>
	<path class="st0" d="M176.3,141.3c0.9-0.1,7.8,0.4,10,0.2c1.9-0.1,8.3,0.7,9.7-0.7c-1.7,3.6-8.4,6.6-9.6,10.3c-0.3,1-0.7,0.3-1,0
		c-1.8-1.8-3.6-3.6-5.3-5.5C178.8,144.3,177.4,143,176.3,141.3z"/>
	<path class="st0" d="M151.4,121c-0.1-0.1-0.2-0.2-0.3-0.3C151.2,120.8,151.3,120.9,151.4,121z"/>
	<path class="st0" d="M222.5,118.2c-0.1,0.1-0.3,0.2-0.4,0.3C222.2,118.4,222.4,118.3,222.5,118.2z"/>
	<path class="st0" d="M314,118.2c-0.1-0.1-0.3-0.2-0.4-0.2C313.7,118,313.9,118.1,314,118.2z"/>
	<path class="st2" d="M132,71.8c-2.5-0.3-4.7-1-6.7-2c-10-4.6-18.5-11-23.6-21.1c-2.7-5.4-4.1-11.1-4.8-17.1
		c-0.8-6-0.8-12.1-0.3-18.1c0-0.4-0.1-0.9,0.3-1.1c0.4-0.2,0.7,0.2,0.9,0.4c4.9,3.9,10.6,6.4,16.2,9c6.3,3,12.5,6,17.5,10.9
		c10.2,9.8,12.8,22.3,8.1,35.2c-0.5,1.2-0.9,0.9-1.5,0.2c-6.3-6.9-11.8-14.4-16.9-22.2c-3.2-4.8-6.2-9.8-9-14.8
		c-1-1.9-3.2-2.5-4.9-1.5c-1.6,0.9-2.2,3.1-1.2,5c7,12.5,14.8,24.4,24.3,35.3C130.9,70.4,131.4,71,132,71.8z"/>
	<path class="st2" d="M124.6,244.7c-10.6-0.6-20.5-3.2-28.9-10.1c-5.4-4.4-9.2-10.1-12.3-16.3c-2.9-5.8-5-11.9-6.6-18.2
		c-0.2-0.9,0-1.1,0.9-0.8c7,2.5,14.3,2.8,21.6,3.8c8.6,1.1,16.8,3.1,23.8,8.6c6.8,5.4,10.7,12.4,11.7,21c0.2,1.7,0.3,3.5,0.3,5.2
		c0,1.4-0.3,1.6-1.5,0.9c-4.5-2.5-8.8-5.2-13-8.2c-8.1-5.7-15.9-11.8-23.1-18.5c-1.6-1.5-3.8-1.5-5.1-0.1c-1.4,1.4-1.2,3.6,0.4,5.2
		c5.3,5,10.9,9.6,16.7,14c5.9,4.5,12,8.7,18.5,12.4c0.3,0.2,0.8,0.3,0.7,0.7c-0.1,0.4-0.6,0.4-0.9,0.4
		C126.6,244.7,125.6,244.7,124.6,244.7z"/>
	<path class="st1" d="M151.1,120.7c-2.5-3.8-5-7.6-7.4-11.4c-1.6-2.5-0.5-5.1,2.1-5.6c1.7-0.3,2.9,0.5,3.7,1.8
		c2.6,4.2,5.4,8.3,8.2,12.4c0.8,1.2,1.5,2.4,2.6,3.4c4.1,5.8,8.4,11.4,13.1,16.7c0.4,0.8,1,1.4,1.7,2c0.1,0.1,0.2,0.3,0.3,0.4
		c0.1,0.1,0.2,0.2,0.2,0.3l0,0c0.1,0.1,0.2,0.2,0.3,0.3c0.1,0.1,0.2,0.2,0.3,0.4c1.1,1.6,2.5,2.9,3.8,4.4c1.7,1.9,3.5,3.7,5.3,5.5
		c0.3,0.3,0.7,1,1,0c1.2-3.8,2.9-7.3,4.6-10.8l0,0c0.3-0.1,0.3-0.3,0.3-0.6c0.8-1.8,2.1-3.4,3.2-5.1c1.7-2.6,4-4.7,5.4-7.6
		c0.6-0.1,1-0.4,1.4-0.8c14.4-15.4,32.4-24,53.1-26.9c19.3-2.7,37.8,0.2,55.4,8.6c6.1,2.9,11.8,6.4,17.2,10.4
		c4.9,4,9.3,8.4,13.1,13.5c1.9,2.7,3.6,5.5,4.8,8.5c3.3,7.5,4.5,15.3,3.1,23.4c-1.3,7.2-4.5,13.6-9.1,19.2c-2.6,3.1-5.5,5.8-8.8,8.1
		c-10.2,7.3-21.6,11.1-33.9,12.8c-10.7,1.5-21.4,1.4-32-0.3c-17.5-2.7-33.5-9.3-48.4-18.7c-8.4-5.3-16.4-11.3-23.8-17.9
		c-0.4-0.3-0.8-0.6-1.4-1.1c-0.4,2-0.3,3.9-0.3,5.7c0.3,11.5,3.9,22,9.7,31.9c7.4,12.7,17.4,23.1,28.6,32.5
		c11.2,9.4,23.5,17.2,36.4,24c11.7,6.1,23.8,11.2,36.2,15.7c17.8,6.4,35.9,11.4,54.4,15.2c10.5,2.2,21.1,4,31.9,5.2
		c1.6,0.2,3.2,0.5,3.9,2.3c1,2.6-0.7,4.9-3.6,4.8c-3.6-0.2-7.2-0.8-10.8-1.3c-15.3-2.3-30.4-5.4-45.3-9.3
		c-22.3-5.8-43.9-13.4-64.6-23.6c-17.7-8.7-34.2-19.2-48.8-32.6c-6.7-6.1-12.9-12.6-18.2-20c-4-5.6-7.8-11.4-10.5-17.8
		c-4.2-9.9-6.6-20.2-6.1-31.1c0.1-2.2,0.4-4.5,0.7-6.7c0.1-0.6,0-1.1-0.4-1.5c-6.2-6-12-12.3-17.5-19c-0.1-0.1-0.2-0.1-0.3-0.2
		c0,0,0,0,0,0c-0.1-0.2-0.2-0.5-0.4-0.7c-3.9-4.7-7.6-9.6-11.1-14.5c-1-1.4-1.8-3-3.1-4.1l0,0C151.3,120.9,151.2,120.8,151.1,120.7
		L151.1,120.7z M314,118.2c-0.1-0.1-0.3-0.2-0.4-0.2c-0.1-0.1-0.2-0.1-0.3-0.1c-3.5-2.3-7.3-4-11.1-5.6c-8.9-3.7-18.2-5.9-27.8-6.6
		c-12.7-0.9-25,0.9-36.9,5.3c-5.2,1.9-10.2,4.2-14.9,7.3c-0.1,0-0.1,0-0.2,0.1c-0.1,0.1-0.3,0.2-0.4,0.3c-0.1,0-0.2,0-0.2,0.1
		c-0.8,0.3-1.6,0.8-2.2,1.4c-1.1,0.8-2.3,1.5-3.4,2.4c-4.4,3.3-8.5,7-12,11.3c-1.8,2.2-3.2,4.6-5,6.8c-3.3,5-5.6,10.4-7.3,16.2
		c-0.2,0.6,0,1,0.4,1.4c1.5,1.3,2.8,2.9,4.3,4.1c4,3.2,7.9,6.6,12.1,9.7c7.4,5.4,15.2,10.1,23.3,14.5c3.1,1.7,6.4,2.9,9.7,4.1
		c6.3,2.3,12.7,4.4,19.3,5.6c15.1,2.8,30.2,2.8,45.1-1.3c9.2-2.5,17.7-6.6,24.6-13.4c9.3-9.3,13-20.3,9.5-33.3
		c-0.7-2.7-1.6-5.4-3.4-7.6c-1-0.6-0.8-1.7-1.3-2.6c-2.4-3.7-5.3-7-8.5-10.1C323.1,124.1,318.8,120.8,314,118.2z"/>
</g>
</svg>
