<?xml version="1.0" encoding="utf-8"?>
<!-- Generator: Adobe Illustrator 25.0.1, SVG Export Plug-In . SVG Version: 6.00 Build 0)  -->
<svg version="1.1" id="Capa_1" xmlns="http://www.w3.org/2000/svg" xmlns:xlink="http://www.w3.org/1999/xlink" x="0px" y="0px"
	 viewBox="0 0 800 800" style="enable-background:new 0 0 800 800;" xml:space="preserve">
<path d="M568.3,0H231.7c-32.1,0-58.2,26-58.2,58.1c0,0,0,0.1,0,0.1v683.5c0,32.1,26,58.2,58.1,58.2c0,0,0,0,0.1,0h336.6
	c32.1,0,58.2-26.1,58.2-58.2V58.3C626.5,26.1,600.4,0,568.3,0z M341.2,37.2h120.1v27.9H341.2V37.2z M400,742.4
	c-20.5,0-37.1-16.6-37.2-37.1c0.9-20.5,18.3-36.4,38.8-35.5c19.3,0.9,34.7,16.3,35.5,35.5C437.1,723.3,420.4,742.4,400,742.4z
	 M582.9,615.1H217.1V98.3h365.7V615.1z"/>
</svg>
