<?xml version="1.0" encoding="utf-8"?>
<!-- Generator: Adobe Illustrator 25.0.1, SVG Export Plug-In . SVG Version: 6.00 Build 0)  -->
<svg version="1.1" id="Capa_1" xmlns="http://www.w3.org/2000/svg" xmlns:xlink="http://www.w3.org/1999/xlink" x="0px" y="0px"
	 viewBox="0 0 800 800" style="enable-background:new 0 0 800 800;" xml:space="preserve">
<style type="text/css">
	.st0{fill-rule:evenodd;clip-rule:evenodd;}
</style>
<path d="M601.5,190.6H198.5c-32,0-58,26.1-58,58.3l-0.3,302.2c0,32.1,26.1,58.3,58.3,58.3h402.9c32.1,0,58.3-26.1,58.3-58.3V248.9
	C659.7,216.8,633.6,190.6,601.5,190.6z M206.4,313.5l193.6,121l193.6-121v229.7H206.4V313.5z M400,365.5L226.1,256.8h347.9
	L400,365.5z"/>
<path class="st0" d="M800,0H0v800h800V0z M720,80H80v640h640V80z"/>
</svg>
