<?xml version="1.0" encoding="utf-8"?>
<!-- Generator: Adobe Illustrator 25.0.1, SVG Export Plug-In . SVG Version: 6.00 Build 0)  -->
<svg version="1.1" id="Capa_1" xmlns="http://www.w3.org/2000/svg" xmlns:xlink="http://www.w3.org/1999/xlink" x="0px" y="0px"
	 viewBox="0 0 3303.3 1224.8" style="enable-background:new 0 0 3303.3 1224.8;" xml:space="preserve">
<style type="text/css">
	.st0{fill:#F8CF34;}
	.st1{fill:#B48C81;}
	.st2{fill:none;stroke:#976964;stroke-linecap:round;stroke-linejoin:round;stroke-miterlimit:10;}
	.st3{fill:#D0456C;}
	.st4{fill:#A22A51;}
	.st5{fill:none;}
	.st6{fill:#DFE2F1;}
	.st7{fill:#9C766D;}
	.st8{fill:#27343A;}
	.st9{opacity:0.5;fill:#FFFFFF;enable-background:new    ;}
	.st10{fill:none;stroke:#976964;stroke-width:2;stroke-linecap:round;stroke-linejoin:round;stroke-miterlimit:10;}
	.st11{fill:#484941;}
	.st12{fill:#EEEDED;}
	.st13{font-family:'BerlinSansFBDemi-Bold';}
	.st14{font-size:67.6143px;}
	.st15{fill:#949494;}
	.st16{fill:#FFFFFF;}
	.st17{fill:none;stroke:#939494;stroke-width:15;stroke-linecap:round;stroke-miterlimit:10;}
	.st18{fill:#1D3E88;}
</style>
<g>
	<path class="st0" d="M3198.4,1159.6H308.9c-57.9,0-104.9-47-104.9-104.9v-857c0-57.9,47-104.9,104.9-104.9h2889.5
		c57.9,0,104.9,47,104.9,104.9v857C3303.3,1112.6,3256.3,1159.6,3198.4,1159.6z"/>
	<g>
		<g>
			<g>
				<path class="st1" d="M58.7,602.4l-20,14.7c0,0,37.8,37.1,41.3,40.1c42.5,36.7,36.5-6.4,36.5-6.4L58.7,602.4z"/>
				<g>
					<path class="st1" d="M70,568.2c-3.4-1.8-7.6-1-9.2,1.8l-5.6,9.5c0,0-2.4-0.2-4-0.8L44,556.1c-0.8-2.7-3.6-4.2-6.3-3.6
						c-3,0.7-5,3.9-4,6.9l5.3,19c-1,0.4-2.1,0.7-3,1.3l-11.8-16.4c-1.6-2.3-4.7-2.9-7.1-1.4l0,0c-2.8,1.6-3.5,5.2-1.7,7.7l11.4,16.9
						c-0.6,0.5-1.1,1-1.7,1.4l-17.5-7.4c-2.5-1.1-5.6,0-6.9,2.4l0,0c-1.4,2.8-0.4,6.3,2.5,7.5l16.9,7.9c-0.1,0.6-0.1,1.2-0.1,1.8
						l-11.4,1c-2.1,0.2-3.7,1.9-3.7,4c0,2.4,1.9,4.3,4.3,4.1l12.7-0.6l2.9,6c2.9,5.9,10.4,7.9,15.7,3.9l21.1-15.6
						c4.2-3.1,5.3-8.7,3.1-13l8-14.5C74.2,572.9,73,569.9,70,568.2z"/>
					<path class="st2" d="M55.2,579.7c0,0-11,0.6-12.2,17.6"/>
				</g>
			</g>
			<g>
				<path class="st1" d="M117.9,650.5L137.7,481l-22.5-15.1c-3.6,2.3-20.8,29.2-20.8,29.2v154.7L117.9,650.5z"/>
			</g>
			<g>
				<path class="st1" d="M58.7,602.4l-20,14.7c0,0,37.8,37.1,41.3,40.1c42.5,36.7,36.5-6.4,36.5-6.4L58.7,602.4z"/>
				<g>
					<path class="st1" d="M70,568.2c-3.4-1.8-7.6-1-9.2,1.8l-5.6,9.5c0,0-2.4-0.2-4-0.8L44,556.1c-0.8-2.7-3.6-4.2-6.3-3.6
						c-3,0.7-5,3.9-4,6.9l5.3,19c-1,0.4-2.1,0.7-3,1.3l-11.8-16.4c-1.6-2.3-4.7-2.9-7.1-1.4l0,0c-2.8,1.6-3.5,5.2-1.7,7.7l11.4,16.9
						c-0.6,0.5-1.1,1-1.7,1.4l-17.5-7.4c-2.5-1.1-5.6,0-6.9,2.4l0,0c-1.4,2.8-0.4,6.3,2.5,7.5l16.9,7.9c-0.1,0.6-0.1,1.2-0.1,1.8
						l-11.4,1c-2.1,0.2-3.7,1.9-3.7,4c0,2.4,1.9,4.3,4.3,4.1l12.7-0.6l2.9,6c2.9,5.9,10.4,7.9,15.7,3.9l21.1-15.6
						c4.2-3.1,5.3-8.7,3.1-13l8-14.5C74.2,572.9,73,569.9,70,568.2z"/>
					<path class="st2" d="M55.2,579.7c0,0-11,0.6-12.2,17.6"/>
				</g>
			</g>
			<g>
				<path class="st1" d="M307.4,602.4l20.1,14.7c0,0-37.8,37.1-41.3,40.1c-42.5,36.7-36.5-6.4-36.5-6.4L307.4,602.4z"/>
				<g>
					<path class="st1" d="M296.2,568.2c3.4-1.8,7.6-1,9.2,1.8l5.6,9.5c0,0,2.4-0.2,4-0.8l7.2-22.6c0.8-2.7,3.6-4.2,6.3-3.6
						c3,0.7,5,3.9,4,6.9l-5.3,19c1,0.4,2.1,0.7,3,1.3l11.8-16.3c1.6-2.3,4.7-2.9,7.1-1.4l0,0c2.8,1.6,3.5,5.2,1.7,7.7l-11.4,16.9
						c0.6,0.5,1.1,1,1.7,1.4l17.5-7.4c2.5-1.1,5.6,0,6.9,2.4l0,0c1.4,2.8,0.4,6.3-2.5,7.5l-16.9,7.9c0.1,0.6,0.1,1.2,0.1,1.8l11.4,1
						c2.1,0.2,3.7,1.9,3.7,4c0,2.4-1.9,4.3-4.3,4.1l-12.7-0.6l-2.9,6c-2.9,5.9-10.4,7.9-15.7,3.9l-21-15.6c-4.2-3.1-5.3-8.7-3.1-13
						l-8-14.5C292.1,572.9,293.3,569.9,296.2,568.2z"/>
					<path class="st2" d="M311.1,579.7c0,0,11,0.6,12.2,17.6"/>
				</g>
			</g>
			<path class="st0" d="M203.8,1196.8h50.8c0-18.4-20.4-29.7-20.4-29.7h-30.4V1196.8z"/>
			<path class="st0" d="M160.4,1196.8h-50.8c0-18.4,20.4-29.7,20.4-29.7h30.4V1196.8z"/>
			<polygon class="st3" points="113.3,1156.7 113.3,705.1 251,705.1 251,1156.7 203.8,1156.7 203.8,783 160.7,783 160.7,1156.7 			
				"/>
			<rect x="173.2" y="703.2" class="st4" width="17.2" height="79.7"/>
			<rect x="113.3" y="1138.2" class="st4" width="47.1" height="30"/>
			<rect x="203.8" y="1138.2" class="st4" width="47.2" height="30"/>
			<g>
				<path class="st1" d="M248.2,650.5L228.4,481l22.6-15c3.6,2.3,20.8,29.2,20.8,29.2V650L248.2,650.5z"/>
			</g>
			<g>
				<path class="st1" d="M307.4,602.4l20.1,14.7c0,0-37.8,37.1-41.3,40.1c-42.5,36.7-36.5-6.4-36.5-6.4L307.4,602.4z"/>
				<g>
					<path class="st1" d="M296.2,568.2c3.4-1.8,7.6-1,9.2,1.8l5.6,9.5c0,0,2.4-0.2,4-0.8l7.2-22.6c0.8-2.7,3.6-4.2,6.3-3.6
						c3,0.7,5,3.9,4,6.9l-5.3,19c1,0.4,2.1,0.7,3,1.3l11.8-16.3c1.6-2.3,4.7-2.9,7.1-1.4l0,0c2.8,1.6,3.5,5.2,1.7,7.7l-11.4,16.9
						c0.6,0.5,1.1,1,1.7,1.4l17.5-7.4c2.5-1.1,5.6,0,6.9,2.4l0,0c1.4,2.8,0.4,6.3-2.5,7.5l-16.9,7.9c0.1,0.6,0.1,1.2,0.1,1.8l11.4,1
						c2.1,0.2,3.7,1.9,3.7,4c0,2.4-1.9,4.3-4.3,4.1l-12.7-0.6l-2.9,6c-2.9,5.9-10.4,7.9-15.7,3.9l-21-15.6c-4.2-3.1-5.3-8.7-3.1-13
						l-8-14.5C292.1,572.9,293.3,569.9,296.2,568.2z"/>
					<path class="st2" d="M311.1,579.7c0,0,11,0.6,12.2,17.6"/>
				</g>
			</g>
			<line class="st5" x1="109.9" y1="465.9" x2="110.1" y2="565.2"/>
			<polygon class="st6" points="113.2,465.9 113.3,581 113.3,764.7 251,764.7 251,465.9 			"/>
			<path class="st6" d="M251,606.5l39.9-19.6l-8.3-64.7c0,0-5.3-56.2-31.4-56.2v140.5H251z"/>
			<path class="st6" d="M115.3,606.5l-39.9-19.6l8.3-64.7c0,0,5.3-56.2,31.4-56.2v140.5H115.3z"/>
			<g>
				<path class="st7" d="M87.7,324.6c-17,0.7-30.4,18.8-30.4,39.5c0,18.8,15,34.4,30.4,35.9C88,371.1,88,324.6,87.7,324.6z"/>
				<path class="st7" d="M277.2,324.6c17,0.7,30.4,18.8,30.4,39.5c0,18.8-15,34.4-30.4,35.9C277,371.1,277.1,324.6,277.2,324.6z"/>
				<path class="st1" d="M87.5,344.9c0,0-22.3-142.2,100.7-142.2c110.9,0,89.1,142.2,89.1,142.2v52.8c0,30.6-24.8,55.4-55.4,55.4
					h-30.7V466h23.4l-7,7.1c-13.5,13.6-35.6,13.9-49.4,0.4l-7.5-7.4h21.6v-12.9h-29.5c-30.6,0-55.4-24.8-55.4-55.4
					C87.5,397.8,87.5,344.9,87.5,344.9z"/>
				<g>
					<g>
						<g>
							<g>
								<path class="st8" d="M142.2,367.7L142.2,367.7c-4.7,0-8.6-3.9-8.6-8.6v-13.5c0-4.7,3.9-8.6,8.6-8.6l0,0
									c4.7,0,8.6,3.9,8.6,8.6v13.5C150.8,364,146.9,367.7,142.2,367.7z"/>
								<path class="st9" d="M146.3,343.7c0,2.3-1.8,4.1-4.1,4.1c-2.3,0-4.1-1.8-4.1-4.1c0-2.3,1.8-4.1,4.1-4.1
									C144.4,339.6,146.3,341.4,146.3,343.7z"/>
							</g>
							<g>
								<path class="st8" d="M222.9,367.7L222.9,367.7c-4.7,0-8.6-3.9-8.6-8.6v-13.5c0-4.7,3.9-8.6,8.6-8.6l0,0
									c4.7,0,8.6,3.9,8.6,8.6v13.5C231.5,364,227.6,367.7,222.9,367.7z"/>
								<path class="st9" d="M226.9,343.7c0,2.3-1.8,4.1-4.1,4.1c-2.3,0-4.1-1.8-4.1-4.1c0-2.3,1.8-4.1,4.1-4.1
									C225.1,339.6,226.9,341.4,226.9,343.7z"/>
							</g>
						</g>
					</g>
					<path class="st10" d="M162.2,399.8c0,0,21.3,19.1,40.2-3.7"/>
					<path class="st7" d="M167.6,378.5h29.8c0,0-5,9.8-14.9,9.8C172.5,388.1,167.6,378.5,167.6,378.5z"/>
				</g>
				<g>
					
						<ellipse transform="matrix(0.7071 -0.7071 0.7071 0.7071 -89.2185 187.1347)" class="st11" cx="181.3" cy="201.3" rx="34.8" ry="34.8"/>
					
						<ellipse transform="matrix(0.2288 -0.9735 0.9735 0.2288 -125.6945 286.2624)" class="st11" cx="117.8" cy="222.5" rx="34.8" ry="34.8"/>
					<circle class="st11" cx="146.5" cy="201.3" r="26.2"/>
					<circle class="st11" cx="216" cy="201.3" r="26.2"/>
					
						<ellipse transform="matrix(0.7071 -0.7071 0.7071 0.7071 -85.5839 238.1713)" class="st11" cx="244.7" cy="222.4" rx="34.8" ry="34.8"/>
				</g>
				<path class="st11" d="M182.5,199.3c-111,0-97.1,126.2-97.1,126.2s27.3-1.9,28.4-38.8c0.2-7.5,6.9-13.2,14.3-12l27.9,4.6
					c16.7,2.8,33.7,2.8,50.4,0l27.9-4.6c7.2-1.2,14.1,4.2,14.3,11.6c0.8,37.2,30.7,39.1,30.7,39.1S293.5,199.3,182.5,199.3z"/>
			</g>
		</g>
	</g>
	<g>
		<path class="st12" d="M2287.4,160c0-20.6,18.1-38.6,38.8-38.6c31.7-0.1,484.6,0,647.9,0c2.1,0,4.1,0.6,6.2,0.9
			c-0.9,0.7-1.7,1.7-2.7,1.9c-21.8,5.6-38.3,26.5-38.3,48.8c0,89.4,0,178.9,0,268.3c0,214.1-0.1,428.2,0.2,642.3
			c0,24.5-19.3,44.2-44,44.1c-139.8-0.9-533.2,0.6-565.8,0.6c-24.6,0-42.2-17.7-42.2-42.3c0-63.6,0-127.3,0-190.9
			C2287.4,776,2287.3,258.5,2287.4,160z"/>
		<path class="st6" d="M2980.3,122.3c28.1-4.1,48.5,6.6,61.1,31.9c3.4,6.9,3.8,14.8,3.8,22.3c0.1,68.8,0.1,137.5,0.1,206.3
			c0,30.7,13.2,48.2,42.9,57c0.7,0.2,1.4,0.6,3.3,1.5c-51.7,0-101.9,0-152.2,0c0-89.4,0-178.9,0-268.3c0-22.2,16.5-43.2,38.3-48.8
			C2978.6,124,2979.4,123,2980.3,122.3z"/>
		<path class="st3" d="M2695,255.1c-0.3,18-14.2,33.9-30,48.8c-14.5,13.7-29.1,27.3-43.5,41.1c-3,2.9-5.1,3.1-8.2,0.1
			c-21.8-20.7-47.2-37.7-65.2-62.2c-10.5-14.3-15.5-30.6-7.8-47.9c6.3-14.2,17.7-22.7,33.5-24.2c16.2-1.5,31.5,7.9,39.4,23.8
			c0.7,1.4,1.8,2.6,2.7,3.9c0.9-1.3,2-2.5,2.7-3.9c9.4-18.8,27-27.7,46-23.2C2682.1,215.3,2695.1,231.7,2695,255.1z"/>
		<text transform="matrix(1 0 0 1 2527.9802 418.2602)" class="st0 st13 st14">MGTA</text>
		<g>
			<g>
				<path class="st15" d="M2461.8,613.4h-85.4c-13.4,0-24.2-10.8-24.2-24.2v-85.4c0-13.4,10.8-24.2,24.2-24.2h85.4
					c13.4,0,24.2,10.8,24.2,24.2v85.4C2485.9,602.6,2475.1,613.4,2461.8,613.4z"/>
				<path class="st16" d="M2408.1,555.7c0.5-0.6,1-1.1,1.4-1.6c11.2-11.2,22.4-22.4,33.6-33.6c2.4-2.4,5.8-3.2,8.9-1.9
					c5.4,2.2,6.7,9.1,2.5,13.3c-6,6-12,12-18,18.1c-7.1,7.2-14.3,14.3-21.4,21.4c-1,1-2,2.1-3.2,2.7c-3.2,1.7-7,0.9-9.5-1.7
					c-4.1-4.2-8.2-8.3-12.4-12.4c-2.1-2.1-4.2-4.2-6.3-6.3c-2.3-2.4-3-5.9-1.6-8.9c1.4-3,4.5-4.9,7.8-4.7c2.2,0.1,4,1.1,5.5,2.7
					c4.1,4.1,8.2,8.1,12.2,12.2C2407.7,555.1,2407.8,555.4,2408.1,555.7z"/>
			</g>
			<line class="st17" x1="2531" y1="568.3" x2="2836.2" y2="568.3"/>
			<line class="st17" x1="2531" y1="522.4" x2="2755.5" y2="522.4"/>
		</g>
		<g>
			<g>
				<path class="st15" d="M2461.8,816.6h-85.4c-13.4,0-24.2-10.8-24.2-24.2V707c0-13.4,10.8-24.2,24.2-24.2h85.4
					c13.4,0,24.2,10.8,24.2,24.2v85.4C2485.9,805.8,2475.1,816.6,2461.8,816.6z"/>
				<path class="st16" d="M2408.1,758.9c0.5-0.6,1-1.1,1.4-1.6c11.2-11.2,22.4-22.4,33.6-33.6c2.4-2.4,5.8-3.2,8.9-1.9
					c5.4,2.2,6.7,9.1,2.5,13.3c-6,6-12,12-18,18.1c-7.1,7.2-14.3,14.3-21.4,21.4c-1,1-2,2.1-3.2,2.7c-3.2,1.7-7,0.9-9.5-1.7
					c-4.1-4.2-8.2-8.3-12.4-12.4c-2.1-2.1-4.2-4.2-6.3-6.3c-2.3-2.4-3-5.9-1.6-8.9c1.4-3,4.5-4.9,7.8-4.7c2.2,0.1,4,1.1,5.5,2.7
					c4.1,4.1,8.2,8.1,12.2,12.2C2407.7,758.3,2407.8,758.6,2408.1,758.9z"/>
			</g>
			<line class="st17" x1="2531" y1="771.5" x2="2836.2" y2="771.5"/>
			<line class="st17" x1="2531" y1="725.6" x2="2755.5" y2="725.6"/>
		</g>
		<g>
			<g>
				<path class="st15" d="M2461.8,1019.8h-85.4c-13.4,0-24.2-10.8-24.2-24.2v-85.4c0-13.4,10.8-24.2,24.2-24.2h85.4
					c13.4,0,24.2,10.8,24.2,24.2v85.4C2485.9,1009,2475.1,1019.8,2461.8,1019.8z"/>
				<path class="st16" d="M2408.1,962.1c0.5-0.6,1-1.1,1.4-1.6c11.2-11.2,22.4-22.4,33.6-33.6c2.4-2.4,5.8-3.2,8.9-1.9
					c5.4,2.2,6.7,9.1,2.5,13.3c-6,6-12,12-18,18.1c-7.1,7.2-14.3,14.3-21.4,21.4c-1,1-2,2.1-3.2,2.7c-3.2,1.7-7,0.9-9.5-1.7
					c-4.1-4.2-8.2-8.3-12.4-12.4c-2.1-2.1-4.2-4.2-6.3-6.3c-2.3-2.4-3-5.9-1.6-8.9c1.4-3,4.5-4.9,7.8-4.7c2.2,0.1,4,1.1,5.5,2.7
					c4.1,4.1,8.2,8.1,12.2,12.2C2407.7,961.5,2407.8,961.8,2408.1,962.1z"/>
			</g>
			<line class="st17" x1="2531" y1="974.7" x2="2836.2" y2="974.7"/>
			<line class="st17" x1="2531" y1="928.8" x2="2755.5" y2="928.8"/>
		</g>
		<g>
			<path class="st11" d="M3161.7,103.7c0-59.1-44.2-103.7-102.5-103.7c-147.6,0-295.3,0-443.1,0.1c-7.9,0-16,0.3-23.7,1.9
				c-45.6,9.3-77.3,45.1-81.4,90.7h38.1c8.5-29,29.1-50.6,58.9-59.5c10.2-3.1,21.2-3.9,31.9-4.4c16.5-0.7,33-0.3,49.5-0.2
				c15.4,0.1,24.3,8.9,24.5,24.3c0,3.7-0.1,7.4,0,11.1c0.4,18.1,11.2,29,29.5,29.1c38.4,0.1,76.8,0,115.2,0c22.8,0,45.5,0,68.3,0
				c20.3,0,31.2-10.9,31.1-30.9c-0.1-22.6,10.8-33.7,33.3-33.6c19.6,0.1,39.5-1.1,58.8,1.4c45.4,5.8,77.7,43.6,77.7,89.4
				c0.2,153.3,0.1,306.7,0.1,460c0,9.4,0,18.8,0,28.2c0,161,0,322-0.2,483.1c0,56.4-38.2,95-94.6,95.1c-132,0.1-264,0.1-396,0
				c-26.4-0.1-49.4-9.8-65.9-26.2h-53.6c14.5,39.6,51,65.2,98.1,65.2c147.1,0,294.1,0,441.2-0.1c8.5,0,17.2-0.6,25.4-2.5
				c48.2-10.9,79.4-50.9,79.4-101.4c0-169.2,0-338.5,0-507.7C3161.7,443.3,3161.8,273.5,3161.7,103.7z M2757,69.4
				c-6.2,0.1-11.3-5-11.2-11.2c0-6.1,5.2-11.3,11.4-10.9c6.5,0.4,10.3,4.1,10.7,10.7C2768.3,64.2,2763.2,69.3,2757,69.4z
				 M2906.7,62.4c-15.8,0.4-31.7,0.2-47.6,0.2c-15.6,0-31.2,0.1-46.9-0.2c-3.7-0.1-9.6,2.2-9.7-4.4c0-1.2,6-3.8,9.3-3.8
				c31.8-0.3,63.5-0.3,95.3,0c3.1,0.1,6.2,2.8,9.3,4.3C2913.2,59.9,2910,62.3,2906.7,62.4z"/>
		</g>
	</g>
	<g>
		<path class="st18" d="M529.2,313.4v-57.2c0-3.7-1.4-5.5-4.3-5.5h-0.1c-2.9,0-4.3,1.8-4.3,5.5v189.7c0,3.7,1.4,5.6,4.3,5.6
			c2.9,0,4.4-1.9,4.4-5.6v-57.1h22.9v57.1c0,18-9.1,27-27.4,27.1c-18.2,0-27.2-9-27.2-27.1V256.2c0-18,9.1-27,27.2-27
			c18.2,0,27.4,9,27.4,27v57.2H529.2z"/>
		<path class="st18" d="M632.8,445.9c0,18-9.1,27-27.4,27.1c-18.2,0-27.2-9-27.2-27.1V256.2c0-18,9.1-27,27.2-27
			c18.2,0,27.4,9,27.4,27V445.9z M609.9,256.2c0-3.7-1.4-5.5-4.3-5.5h-0.1c-2.9,0-4.3,1.8-4.3,5.5v189.7c0,3.7,1.4,5.6,4.3,5.6
			c2.9,0,4.4-1.9,4.4-5.6V256.2z"/>
		<path class="st18" d="M691.1,470.6l-8.7-175.3v175.3H660V231.4h28.9l10.9,176.7l10.9-176.7h28.9v239.2h-22.3v-175l-8.7,175H691.1z
			"/>
		<path class="st18" d="M768,231.4h27.6c17,0,25.6,9,25.6,27v76.1c0,13.1-6.1,21.7-18.2,25.7c-2.9,0.9-6.9,1.3-12.1,1.3v109.1H768
			V231.4z M790.9,252.8V340h0.8c2,0,3.2-0.1,3.7-0.2c1.8-0.7,2.7-2.5,2.7-5.3v-76.1c0-3.7-1.4-5.6-4.3-5.6H790.9z"/>
		<path class="st18" d="M858.3,411.6l-3.7,59h-23.1l5.6-85.4l12.2-153.8H878l12.2,153.5l5.6,85.7h-23.1l-3.7-59H858.3z M867.8,390.1
			l-4.2-114.2l-4.2,114.2H867.8z"/>
		<path class="st18" d="M960.3,357.1l17.2,113.5H953l-10.4-109.1h-1.3v109.1h-22.9V231.4H946c17,0,25.6,9,25.6,27v76.1
			C971.5,345.6,967.8,353.1,960.3,357.1z M941.3,252.8V340h0.8c2,0,3.2-0.1,3.7-0.2c1.8-0.7,2.7-2.5,2.7-5.3v-76.1
			c0-3.7-1.4-5.6-4.3-5.6H941.3z"/>
		<path class="st18" d="M1044.6,231.4v21.4h-15.9v217.8h-22.8V252.8H990v-21.4H1044.6z"/>
		<path class="st18" d="M1067.1,231.4h49.8v21.4H1090v87.3h23.2v21.5H1090v87.5h26.9v21.5h-49.8V231.4z"/>
	</g>
	<g>
		<path class="st11" d="M832.5,904.9h15c7.7,0,11.6,3,11.6,9c0,1.2-0.2,2.5-0.5,4l-7.7,36.6c-1.3,6.3-5.5,10.5-12.6,12.4
			c-1.6,0.4-3.9,0.7-6.7,0.7l-11.1,52.5H808L832.5,904.9z M842.8,915.2l-8.9,42h0.5c1.1,0,1.8,0,2.1-0.1c1-0.3,1.7-1.2,2-2.5
			l7.7-36.6c0.1-0.3,0.1-0.7,0.1-1c0-1.2-0.6-1.8-1.9-1.8H842.8z"/>
		<path class="st11" d="M868.8,991.7l-8.1,28.4h-12.6L860,979l22.4-74H898l-9,73.9l-5.7,41.2h-12.6l4-28.4H868.8z M876.2,981.3
			l9.4-55l-14,55H876.2z"/>
		<path class="st11" d="M929.9,965.5l-2.2,54.7h-13.3l5.5-52.5h-0.7l-11.1,52.5h-12.5L920,904.9h15c7.7,0,11.6,3,11.6,9
			c0,1.2-0.2,2.5-0.5,4l-7.7,36.6C937.3,959.9,934.4,963.5,929.9,965.5z M930.2,915.2l-8.9,42h0.5c1.1,0,1.8,0,2.1-0.1
			c1-0.3,1.7-1.2,2-2.5l7.7-36.6c0.1-0.3,0.1-0.7,0.1-1c0-1.2-0.6-1.8-1.9-1.8H930.2z"/>
		<path class="st11" d="M956.7,991.7l-8.1,28.4H936l11.8-41.1l22.4-74h15.6l-9,73.9l-5.7,41.2h-12.6l4-28.4H956.7z M964,981.3
			l9.4-55l-14,55H964z"/>
		<path class="st11" d="M1027.1,1022.6c0,0.2,0.9,0.3,2.7,0.3c1.6,0,4-0.1,7.2-0.2l-1.9,9.1c-6.9,0-11.3-0.5-13.4-1.6
			c-2.3-1.1-3.4-2.9-3.4-5.4c0-0.5,0-1.1,0.1-1.6c-5.9-0.5-8.9-3.4-8.9-8.8c0-1.2,0.2-2.6,0.5-4.1l19.6-92.1c1.8-8.7,7.7-13,17.6-13
			c8.4,0,12.6,3.1,12.6,9.3c0,1.1-0.2,2.4-0.5,3.7l-19.6,92.1C1038,1017.8,1033.9,1021.9,1027.1,1022.6z M1046.7,918.2
			c0.1-0.3,0.1-0.7,0.1-1c0-1.1-0.6-1.7-1.9-1.7h-0.1c-1.6,0-2.5,0.9-2.9,2.7l-19.6,92.1c-0.1,0.3-0.1,0.7-0.1,1
			c0,1.2,0.6,1.8,1.9,1.8c1.6,0,2.6-0.9,3-2.7L1046.7,918.2z"/>
		<path class="st11" d="M1085.2,1008.3c-1.8,8.7-7.7,13-17.7,13.1c-8.3,0-12.5-3.1-12.5-9.2c0-1.2,0.2-2.5,0.5-3.8l21.9-103.2h12.5
			l-21.9,103.2c-0.1,0.3-0.1,0.7-0.1,1c0,1.2,0.6,1.8,1.9,1.8c1.6,0,2.6-0.9,3-2.7l21.9-103.2h12.5L1085.2,1008.3z"/>
		<path class="st11" d="M1122.7,904.9h27.1l-2.2,10.3H1133l-8.9,42.1h12.6l-2.2,10.3h-12.6l-8.9,42.1h14.6l-2.2,10.3h-27.1
			L1122.7,904.9z"/>
		<path class="st11" d="M1204.9,904.9h12.1l-24.5,115.2h-9.6l3.6-56.3l-12,56.3h-11.8l24.5-115.2h9.6l-3.8,55.8L1204.9,904.9z"/>
		<path class="st11" d="M1239.5,1008.3c-1.8,8.7-7.7,13-17.7,13.1c-8.3,0-12.5-3.1-12.5-9.2c0-1.2,0.2-2.5,0.5-3.8l19.4-91.3
			c1.9-8.7,7.7-13,17.6-13c8.4,0,12.6,3.1,12.6,9.2c0,1.1-0.2,2.4-0.5,3.8L1239.5,1008.3z M1246.4,917c0.1-0.3,0.1-0.7,0.1-1
			c0-1.1-0.6-1.7-1.9-1.7h-0.1c-1.6,0-2.5,0.9-2.9,2.7l-19.4,91.3c-0.1,0.3-0.1,0.7-0.1,1c0,1.2,0.6,1.8,1.9,1.8
			c1.6,0,2.6-0.9,3-2.7L1246.4,917z"/>
		<path class="st11" d="M1327.3,904.9l-2.2,10.3h-8.7l-22.3,104.9h-12.4l22.3-104.9h-8.7l2.2-10.3H1327.3z"/>
		<path class="st11" d="M1339.5,904.9h27.1l-2.2,10.3h-14.6l-8.9,42.1h12.6l-2.2,10.3h-12.6l-8.9,42.1h14.6l-2.2,10.3h-27.1
			L1339.5,904.9z"/>
		<path class="st11" d="M1414,965.5l-2.2,54.7h-13.3l5.5-52.5h-0.7l-11.1,52.5h-12.5l24.5-115.2h15c7.7,0,11.6,3,11.6,9
			c0,1.2-0.2,2.5-0.5,4l-7.7,36.6C1421.4,959.9,1418.5,963.5,1414,965.5z M1414.3,915.2l-8.9,42h0.5c1.1,0,1.8,0,2.1-0.1
			c1-0.3,1.7-1.2,2-2.5l7.7-36.6c0.1-0.3,0.1-0.7,0.1-1c0-1.2-0.6-1.8-1.9-1.8H1414.3z"/>
		<path class="st11" d="M1444.3,904.9h27.1l-2.2,10.3h-14.6l-8.9,42.1h12.6l-2.2,10.3h-12.6l-8.9,42.1h14.6l-2.2,10.3h-27.1
			L1444.3,904.9z"/>
		<path class="st11" d="M1488.3,957.4h14.6l-10.8,50.9c-1.8,8.7-7.7,13-17.7,13.1c-8.3,0-12.5-3.1-12.5-9.2c0-1.2,0.2-2.5,0.5-3.8
			l19.5-91.3c1.8-8.7,7.7-13,17.6-13c8.4,0,12.6,3.1,12.6,9.3c0,1.1-0.2,2.4-0.5,3.7l-5.9,27.6h-12.5l5.9-27.6
			c0-0.3,0.1-0.6,0.1-0.9c0-1.2-0.6-1.8-1.9-1.8h-0.1c-1.6,0-2.5,0.9-2.9,2.7l-19.5,91.3c-0.1,0.3-0.1,0.7-0.1,1
			c0,1.2,0.6,1.8,1.9,1.8c1.6,0,2.6-0.9,3-2.7l8.7-40.5h-2.1L1488.3,957.4z"/>
		<path class="st11" d="M1521.8,991.7l-8.1,28.4h-12.6l11.8-41.1l22.4-74h15.6l-9,73.9l-5.7,41.2h-12.6l4-28.4H1521.8z
			 M1529.1,981.3l9.4-55l-14,55H1529.1z"/>
		<path class="st11" d="M1548.5,1020.1l24.5-115.2h12.5l-22.3,104.8h14.6l-2.2,10.3H1548.5z"/>
		<path class="st11" d="M1612.3,904.9h27.1l-2.2,10.3h-14.6l-8.9,42.1h12.6l-2.2,10.3h-12.6l-8.9,42.1h14.6l-2.2,10.3h-27.1
			L1612.3,904.9z"/>
		<path class="st11" d="M1669.9,904.9h12.1l-24.5,115.2h-9.6l3.6-56.3l-12,56.3h-11.8l24.5-115.2h9.6l-3.8,55.8L1669.9,904.9z"/>
		<path class="st11" d="M1730.8,944.6l5.8-27.5c0.1-0.3,0.1-0.7,0.1-1c0-1.1-0.6-1.7-1.9-1.7h-0.1c-1.6,0-2.5,0.9-2.9,2.7
			l-19.4,91.3c-0.1,0.3-0.1,0.7-0.1,1c0,1.2,0.6,1.8,1.9,1.8c1.6,0,2.6-0.9,3-2.7l5.9-27.5h12.5l-5.9,27.5
			c-1.8,8.7-7.7,13-17.7,13.1c-8.3,0-12.5-3.1-12.5-9.2c0-1.2,0.2-2.5,0.5-3.8l19.4-91.3c1.9-8.7,7.7-13,17.6-13
			c8.4,0,12.6,3.1,12.6,9.2c0,1.1-0.2,2.4-0.5,3.8l-5.8,27.5H1730.8z"/>
		<path class="st11" d="M1759.5,991.7l-8.1,28.4h-12.6l11.8-41.1l22.4-74h15.6l-9,73.9l-5.7,41.2h-12.6l4-28.4H1759.5z
			 M1766.8,981.3l9.4-55l-14,55H1766.8z"/>
		<path class="st11" d="M1786.1,1020.1l24.5-115.2h12.5l-22.3,104.8h14.6l-2.2,10.3H1786.1z"/>
		<path class="st11" d="M1858.8,944.6l5.8-27.5c0.1-0.3,0.1-0.7,0.1-1c0-1.1-0.6-1.7-1.9-1.7h-0.1c-1.6,0-2.5,0.9-2.9,2.7
			l-19.4,91.3c-0.1,0.3-0.1,0.7-0.1,1c0,1.2,0.6,1.8,1.9,1.8c1.6,0,2.6-0.9,3-2.7l5.9-27.5h12.5l-5.9,27.5
			c-1.8,8.7-7.7,13-17.7,13.1c-8.3,0-12.5-3.1-12.5-9.2c0-1.2,0.2-2.5,0.5-3.8l19.4-91.3c1.9-8.7,7.7-13,17.6-13
			c8.4,0,12.6,3.1,12.6,9.2c0,1.1-0.2,2.4-0.5,3.8l-5.8,27.5H1858.8z"/>
		<path class="st11" d="M1894.5,904.9h27.1l-2.2,10.3h-14.6l-8.9,42.1h12.6l-2.2,10.3h-12.6l-8.9,42.1h14.6l-2.2,10.3H1870
			L1894.5,904.9z"/>
		<path class="st11" d="M1961,904.9l-2.2,10.3h-8.7l-22.2,104.9h-12.4l22.3-104.9h-8.7l2.2-10.3H1961z"/>
		<path class="st11" d="M1973.5,904.9h12.5l-24.5,115.2h-12.5L1973.5,904.9z"/>
		<path class="st11" d="M2019.4,904.9h12.1l-24.5,115.2h-9.6l3.6-56.3l-12,56.3h-11.8l24.5-115.2h9.6l-3.8,55.8L2019.4,904.9z"/>
		<path class="st11" d="M2047,904.9h27.1l-2.2,10.3h-14.6l-8.9,42.1h12.6l-2.2,10.3h-12.6l-8.9,42.1h14.6l-2.2,10.3h-27.1
			L2047,904.9z"/>
		<path class="st11" d="M2082.7,980.9l-5.9,27.5c-0.1,0.3-0.1,0.7-0.1,1c0,1.2,0.7,1.8,2,1.8c1.6,0,2.5-0.9,2.9-2.7l7.2-34
			c0-0.3,0.1-0.5,0.1-0.7c0-2.3-2.1-4.9-6.2-7.9c-4.4-3.2-6.6-6.9-6.6-11.2c0-1,0.1-1.9,0.3-2.9l7.4-34.5c1.8-8.7,7.7-13,17.6-13
			c8.4,0,12.6,3.1,12.6,9.3c0,1.1-0.2,2.4-0.5,3.7l-5.9,27.6h-12.5l5.9-27.6c0-0.3,0.1-0.6,0.1-0.9c0-1.2-0.6-1.8-1.9-1.8h-0.1
			c-1.6,0-2.5,0.9-2.9,2.7l-7.4,34.4c0,0.2-0.1,0.4-0.1,0.6c0,2.1,2.1,4.7,6.3,7.8c4.4,3.2,6.6,6.9,6.6,11.1c0,0.9-0.1,1.8-0.3,2.7
			l-7.4,34.7c-1.9,8.7-7.7,13.1-17.6,13.1c-8.4,0-12.6-3.2-12.6-9.4c0-1.1,0.2-2.4,0.5-3.7l5.9-27.5H2082.7z"/>
	</g>
	<g>
		<path class="st3" d="M511,528.4v25.9h-19.3v264.2h-27.7V554.3h-19.3v-25.9H511z"/>
		<path class="st3" d="M604.5,788.5c0,21.8-11.1,32.8-33.2,32.9c-22,0-33-11-33-32.9V528.4h27.8v260.1c0,4.5,1.7,6.8,5.2,6.8
			c3.6,0,5.4-2.3,5.4-6.8V528.4h27.8V788.5z"/>
		<path class="st3" d="M693.5,818.5V528.4h27.8v264h32.6v26.1H693.5z"/>
		<path class="st3" d="M781.9,528.4h27.8v290.1h-27.8V528.4z"/>
		<path class="st3" d="M871.3,719.2v69.3c0,4.5,1.8,6.8,5.4,6.8c3.5,0,5.2-2.3,5.2-6.8v-85.8c0-6-5.9-13.3-17.8-21.9
			c-13.7-9.7-20.6-21.5-20.6-35.5v-87.1c0-21.8,11-32.7,33-32.7c22.1,0,33.2,10.9,33.2,32.7v69.6h-27.8v-69.6c0-4.4-1.7-6.7-5.2-6.7
			h-0.1c-3.5,0-5.2,2.2-5.2,6.7v86.6c0,5.5,5.9,12.6,17.8,21.2c13.7,9.7,20.6,21.3,20.6,34.9v87.5c0,21.9-11,32.9-33,32.9
			c-22.1-0.1-33.2-11.1-33.2-32.9v-69.3H871.3z"/>
		<path class="st3" d="M1001.6,528.4v25.9h-19.3v264.2h-27.7V554.3h-19.3v-25.9H1001.6z"/>
		<path class="st3" d="M1046.2,746.9l-4.5,71.6h-28l6.8-103.6l14.8-186.5h34.8l14.8,186.2l6.8,103.9h-28l-4.5-71.6H1046.2z
			 M1057.8,720.8l-5.1-138.5l-5.1,138.5H1057.8z"/>
		<path class="st3" d="M1173.7,528.4h35.2c20.7,0,31,10.9,31,32.7v224.6c0,21.7-10.8,32.7-32.3,32.7h-33.9V528.4z M1201.5,554.3
			v238.1h5.4c3.5,0,5.2-2.2,5.2-6.7V561.2c0-4.5-1.7-6.8-5.2-6.8H1201.5z"/>
		<path class="st3" d="M1272.9,528.4h60.4v25.9h-32.6v105.9h28.1v26.1h-28.1v106.1h32.6v26.1h-60.4V528.4z"/>
		<path class="st3" d="M1416.6,528.4h35.2c20.7,0,31,10.9,31,32.7v224.6c0,21.7-10.8,32.7-32.3,32.7h-33.9V528.4z M1444.4,554.3
			v238.1h5.4c3.5,0,5.2-2.2,5.2-6.7V561.2c0-4.5-1.7-6.8-5.2-6.8H1444.4z"/>
		<path class="st3" d="M1515.9,528.4h60.4v25.9h-32.6v105.9h28.1v26.1h-28.1v106.1h32.6v26.1h-60.4V528.4z"/>
		<path class="st3" d="M1631.3,719.2v69.3c0,4.5,1.8,6.8,5.4,6.8c3.5,0,5.2-2.3,5.2-6.8v-85.8c0-6-5.9-13.3-17.8-21.9
			c-13.7-9.7-20.6-21.5-20.6-35.5v-87.1c0-21.8,11-32.7,33-32.7c22.1,0,33.2,10.9,33.2,32.7v69.6h-27.8v-69.6c0-4.4-1.7-6.7-5.2-6.7
			h-0.1c-3.5,0-5.2,2.2-5.2,6.7v86.6c0,5.5,5.9,12.6,17.8,21.2c13.7,9.7,20.6,21.3,20.6,34.9v87.5c0,21.9-11,32.9-33,32.9
			c-22.1-0.1-33.2-11.1-33.2-32.9v-69.3H1631.3z"/>
		<path class="st3" d="M1702.7,528.4h60.4v25.9h-32.6v105.9h28.1v26.1h-28.1v106.1h32.6v26.1h-60.4V528.4z"/>
		<path class="st3" d="M1817,746.9l-4.5,71.6h-28l6.8-103.6l14.8-186.5h34.8l14.8,186.2l6.8,103.9h-28l-4.5-71.6H1817z
			 M1828.6,720.8l-5.1-138.5l-5.1,138.5H1828.6z"/>
		<path class="st3" d="M1889.9,528.4h35.2c20.7,0,31,10.9,31,32.7v224.6c0,21.7-10.8,32.7-32.3,32.7h-33.9V528.4z M1917.7,554.3
			v238.1h5.4c3.5,0,5.2-2.2,5.2-6.7V561.2c0-4.5-1.7-6.8-5.2-6.8H1917.7z"/>
		<path class="st3" d="M2053.9,788.5c0,21.8-11.1,32.8-33.2,32.9c-22,0-33-11-33-32.9V558.4c0-21.8,11-32.7,33-32.7
			c22.1,0,33.2,10.9,33.2,32.7V788.5z M2026.1,558.4c0-4.4-1.7-6.7-5.2-6.7h-0.1c-3.5,0-5.2,2.2-5.2,6.7v230.1
			c0,4.5,1.7,6.8,5.2,6.8c3.6,0,5.4-2.3,5.4-6.8V558.4z"/>
		<path class="st3" d="M2113.3,719.2v69.3c0,4.5,1.8,6.8,5.4,6.8c3.5,0,5.2-2.3,5.2-6.8v-85.8c0-6-5.9-13.3-17.8-21.9
			c-13.7-9.7-20.6-21.5-20.6-35.5v-87.1c0-21.8,11-32.7,33-32.7c22.1,0,33.2,10.9,33.2,32.7v69.6h-27.8v-69.6c0-4.4-1.7-6.7-5.2-6.7
			h-0.1c-3.5,0-5.2,2.2-5.2,6.7v86.6c0,5.5,5.9,12.6,17.8,21.2c13.7,9.7,20.6,21.3,20.6,34.9v87.5c0,21.9-11,32.9-33,32.9
			c-22.1-0.1-33.2-11.1-33.2-32.9v-69.3H2113.3z"/>
	</g>
</g>
</svg>
