<?xml version="1.0" encoding="utf-8"?>
<!-- Generator: Adobe Illustrator 25.0.1, SVG Export Plug-In . SVG Version: 6.00 Build 0)  -->
<svg version="1.1" id="Capa_1" xmlns="http://www.w3.org/2000/svg" xmlns:xlink="http://www.w3.org/1999/xlink" x="0px" y="0px"
	 viewBox="0 0 314.2 126.4" style="enable-background:new 0 0 314.2 126.4;" xml:space="preserve">
<style type="text/css">
	.st0{fill:#F2F2F2;}
</style>
<g>
	<path class="st0" d="M0,126.4V30.9C0,12.8,13.2,0.1,31.2,0.1c7.7,0,14.4,2.4,19.6,6.5c5.3-4.2,12.2-6.5,20-6.5
		c17.8,0,30.7,12.9,30.7,30.7v95.5H79.3V40.5c0-7.4,2.4-18.1-8.5-18.1c-6.7,0-8.6,3.1-8.9,8.5v95.5H39.6V30.9c0-0.3,0-0.4,0-0.7
		c-0.4-4.3-2.2-7.7-8.5-7.7c-8,0-9.1,4.5-9.1,11.3c0,30.9,0.1,61.8,0.1,92.7L0,126.4L0,126.4z"/>
	<path class="st0" d="M113.5,95.6V31c0-18.1,13.2-30.9,31.2-30.9c15.1,0,27.5,9.5,30.3,24.7c0.4,2.7,0.4,5.5,0.4,8.3v7.4h-22.3
		c0-7.4,2.4-18.1-8.5-18.1c-5.6,0-8.9,2.7-8.9,8.6v64.6c0,5.5,3,8.5,8.5,8.5c7,0,9.1-3.4,9.1-9.7c0-3-0.1-5.9-0.1-8.9h-10.8V63.3
		h33.1v32.4c0,18.1-13.2,30.7-31.2,30.7C126.4,126.4,113.5,113.5,113.5,95.6z"/>
	<path class="st0" d="M184.3,0.1h60.1v22.3h-19v103.9h-22.3V22.4h-18.9V0.1H184.3z"/>
	<path class="st0" d="M283.5,0c17.8,0,30.7,12.9,30.7,30.7v95.6h-22.3V82.7h-17.4c0,14.6,0,29.1,0,43.7h-22.3V30.7
		C252.3,12.6,265.5,0,283.5,0z M291.9,60.4v-20c0-7.4,2.4-18.1-8.5-18.1c-8,0-9.1,4.5-9.1,11.4c0,8.9,0,17.8,0.1,26.7H291.9z"/>
</g>
</svg>
