<?xml version="1.0" encoding="utf-8"?>
<!-- Generator: Adobe Illustrator 25.0.1, SVG Export Plug-In . SVG Version: 6.00 Build 0)  -->
<svg version="1.1" id="Capa_1" xmlns="http://www.w3.org/2000/svg" xmlns:xlink="http://www.w3.org/1999/xlink" x="0px" y="0px"
	 viewBox="0 0 229.7 229.7" style="enable-background:new 0 0 229.7 229.7;" xml:space="preserve">
<style type="text/css">
	.st0{fill:#FFFFFF;}
</style>
<circle cx="114.8" cy="114.8" r="108.8"/>
<path class="st0" d="M64.1,178V82.5c0-18.1,13.2-30.7,31.2-30.7c7.7,0,14.4,2.4,19.6,6.5c5.3-4.2,12.2-6.5,20-6.5
	c17.8,0,30.7,12.9,30.7,30.7V178h-22.3V92.1c0-7.4,2.4-18.1-8.5-18.1c-6.7,0-8.6,3.1-8.9,8.5V178h-22.3V82.5c0-0.3,0-0.4,0-0.7
	c-0.4-4.3-2.2-7.7-8.5-7.7c-8,0-9.1,4.5-9.1,11.3c0,30.9,0.1,61.8,0.1,92.7H64.1z"/>
</svg>
