<?xml version="1.0" encoding="utf-8"?>
<!-- Generator: Adobe Illustrator 25.0.1, SVG Export Plug-In . SVG Version: 6.00 Build 0)  -->
<svg version="1.1" id="Capa_1" xmlns="http://www.w3.org/2000/svg" xmlns:xlink="http://www.w3.org/1999/xlink" x="0px" y="0px"
	 viewBox="0 0 590.7 819.9" style="enable-background:new 0 0 590.7 819.9;" xml:space="preserve">
<style type="text/css">
	.st0{fill-rule:evenodd;clip-rule:evenodd;fill:url(#path-1_1_);}
	.st1{fill-rule:evenodd;clip-rule:evenodd;fill:#FC9502;}
	.st2{fill:#FFD581;}
	.st3{fill:#262626;}
	.st4{fill:#FB7B76;}
	.st5{fill:#E64C3C;}
	.st6{fill:#CB8252;}
</style>
<g>
	<g id="fire">
		
			<linearGradient id="path-1_1_" gradientUnits="userSpaceOnUse" x1="70.6242" y1="559.3841" x2="70.6242" y2="814.2006" gradientTransform="matrix(3.1373 0 0 -3.1373 73.7977 2554.3406)">
			<stop  offset="0" style="stop-color:#FF4C0D"/>
			<stop  offset="1" style="stop-color:#FC9502"/>
		</linearGradient>
		<path id="path-1" class="st0" d="M589.5,517c-6.6,157-135.9,282.4-294.6,282.4C132,799.4,0,662.9,0,504.5
			c0-21.2-0.4-63.5,31.4-134.9c19-42.7,30.9-69.6,37.6-94.1c3.7-13.5,10.9-34.9,31.4,0c12.1,20.6,12.5,50.2,12.5,50.2
			s45-34.5,75.3-100.4c44.5-96.6,9-154.4-3.1-194.5c-4.2-13.9-6.8-38.9,22-28.2C236.4,13.4,314,67.7,354.5,124.9
			c57.9,81.7,78.4,160,78.4,160s18.5-23,25.1-47.1c7.4-27.2,7.5-54.1,31.4-25.1c22.7,27.6,56.3,79.4,75.3,128.6
			C599.1,430.8,589.5,517,589.5,517z"/>
		<path id="path-2" class="st1" d="M294.9,799.4C151.3,799.4,34.8,683,34.8,539.3c0-86.7,34.9-139.3,107.6-210.7
			c46.5-45.7,90.1-101.8,108.6-140c3.6-7.5,11.9-46.7,43.9-0.8c16.8,24.1,43.1,66.9,59.9,103.4c29.1,63,36,124,36,124
			s28.5-16.8,48-60c6.3-13.9,19-66.7,54.6-13.9c26.1,38.7,62,108.3,61.4,198C555,683,438.5,799.4,294.9,799.4z"/>
	</g>
	<g>
		<path class="st2" d="M543.9,572.5c0-20-14.1-40.4-31.6-47.4c-18.3-103.6-107-179-215.8-179S99,421.4,80.6,525.1
			C63.1,532,49,552.5,49,572.5c0,20.8,13.5,38.3,32.2,44.7c22.7,98,110.3,171.2,215.2,171.2c5.7,0,11.4-0.3,17.1-0.7
			c-0.8-3.2-1.3-6.4-1.3-9.8v-82.1c19.1,0,76.8,0.2,94.8,0v62.9c52.1-30.2,90.7-81.1,104.7-141.4
			C530.4,610.8,543.9,593.3,543.9,572.5z"/>
		<path class="st3" d="M175.4,640.9c-2.7,0-5.4-1-7.4-3.1c-4.1-4.1-4.1-10.8,0-14.9l54.2-54.2c4.1-4.1,10.8-4.1,14.9,0
			c4.1,4.1,4.1,10.8,0,14.9l-54.2,54.2C180.8,639.9,178.1,640.9,175.4,640.9z"/>
		<path class="st3" d="M229.6,640.9c-2.7,0-5.4-1-7.4-3.1l-54.2-54.2c-4.1-4.1-4.1-10.8,0-14.9c4.1-4.1,10.8-4.1,14.9,0l54.2,54.2
			c4.1,4.1,4.1,10.8,0,14.9C235,639.9,232.3,640.9,229.6,640.9z"/>
		<path class="st3" d="M375.4,640.9c-2.7,0-5.4-1-7.4-3.1c-4.1-4.1-4.1-10.8,0-14.9l54.2-54.2c4.1-4.1,10.8-4.1,14.9,0
			c4.1,4.1,4.1,10.8,0,14.9l-54.2,54.2C380.8,639.9,378.1,640.9,375.4,640.9z"/>
		<path class="st3" d="M429.6,640.9c-2.7,0-5.4-1-7.4-3.1L368,583.6c-4.1-4.1-4.1-10.8,0-14.9c4.1-4.1,10.8-4.1,14.9,0l54.2,54.2
			c4.1,4.1,4.1,10.8,0,14.9C435,639.9,432.3,640.9,429.6,640.9z"/>
		<path class="st3" d="M512.3,525.1L512.3,525.1C494,421.5,403.7,342.7,294.8,342.7S99,421.4,80.6,525.1c0,0,178,45.6,297.4-49.8
			c5.8-4.7,14.3-3.6,18.5,2.6C418.1,510.1,457.9,549.1,512.3,525.1z"/>
		<g>
			<path class="st4" d="M312.3,695.6v82.1c0,23.2,19,42.1,42.1,42.1h10.5c23.2,0,42.1-19,42.1-42.1v-82.1
				C389,695.9,331.3,695.6,312.3,695.6z"/>
		</g>
		<path class="st5" d="M360,777.8c-5.8,0-10.5-4.7-10.5-10.5v-1.7c0-27-0.7-43.6-2.3-49.6c-2.1-1.9-3.4-4.7-3.4-7.7
			c0-5.8,4.7-10.5,10.5-10.5c13.6,0,14.6,17.6,15.4,31.7c0.7,12.4,0.7,26.7,0.7,36.2v1.7C370.5,773.1,365.8,777.8,360,777.8z"/>
		<path class="st6" d="M417.6,706.2H185.9c-5.8,0-10.5-4.7-10.5-10.5c0-5.8,4.7-10.5,10.5-10.5h231.6c5.8,0,10.5,4.7,10.5,10.5
			C428.1,701.5,423.4,706.2,417.6,706.2z"/>
	</g>
</g>
</svg>
