<?xml version="1.0" encoding="utf-8"?>
<!-- Generator: Adobe Illustrator 25.0.1, SVG Export Plug-In . SVG Version: 6.00 Build 0)  -->
<svg version="1.1" id="Capa_1" xmlns="http://www.w3.org/2000/svg" xmlns:xlink="http://www.w3.org/1999/xlink" x="0px" y="0px"
	 viewBox="0 0 1335.4 1224.9" style="enable-background:new 0 0 1335.4 1224.9;" xml:space="preserve">
<style type="text/css">
	.st0{fill:#474840;}
	.st1{fill:#EDEDED;}
	.st2{fill:#E0E2F1;}
	.st3{fill:#D0456C;}
	.st4{fill:#F8CE31;}
	.st5{font-family:'BerlinSansFBDemi-Bold';}
	.st6{font-size:67.6143px;}
	.st7{fill:#949494;}
	.st8{fill:#FFFFFF;}
	.st9{fill:none;stroke:#939494;stroke-width:15;stroke-linecap:round;stroke-miterlimit:10;}
	.st10{fill:#C71E45;}
	.st11{fill:#CE8A0D;}
	.st12{fill:#B48C80;}
	.st13{fill:none;stroke:#976863;stroke-linecap:round;stroke-linejoin:round;stroke-miterlimit:10;}
	.st14{fill:#A12A50;}
	.st15{fill:none;}
	.st16{fill:#E0E3F2;}
	.st17{fill:#9C756D;}
	.st18{fill:#263339;}
	.st19{opacity:0.5;fill:#FFFFFF;}
	.st20{fill:none;stroke:#976863;stroke-width:2;stroke-linecap:round;stroke-linejoin:round;stroke-miterlimit:10;}
</style>
<g>
	<g>
		<path class="st0" d="M1129.7,613.1c0,169.2,0,338.5,0,507.7c0,50.5-31.2,90.5-79.4,101.4c-8.2,1.9-16.9,2.5-25.4,2.5
			c-147.1,0.1-294.1,0.1-441.2,0.1c-61.6,0-105-43.7-105-105.4c0-282.4,0-564.9-0.1-847.3c0-56.6-0.1-113.2,0-169.8
			c0.2-50.1,33.1-90.4,81.8-100.3c7.7-1.6,15.8-1.9,23.7-1.9C731.9,0,879.6,0,1027.2,0c58.3,0,102.5,44.6,102.5,103.7
			C1129.8,273.5,1129.7,443.3,1129.7,613.1z M1095.9,607.6c0-9.4,0-18.8,0-28.2c0-153.3,0.1-306.7-0.1-460
			c0-45.8-32.3-83.6-77.7-89.4c-19.3-2.5-39.2-1.3-58.8-1.4c-22.5-0.1-33.4,11-33.3,33.6c0.1,20-10.8,30.9-31.1,30.9
			c-22.8,0-45.5,0-68.3,0c-38.4,0-76.8,0.1-115.2,0c-18.3-0.1-29.1-11-29.5-29.1c-0.1-3.7,0-7.4,0-11.1
			c-0.2-15.4-9.1-24.2-24.5-24.3c-16.5-0.1-33-0.5-49.5,0.2c-10.7,0.5-21.7,1.3-31.9,4.4c-39.7,12-63.2,46.5-63.2,91
			c0,231,0,462,0,692.9c0,92.2-0.1,184.3,0,276.5c0.1,53,39.4,92.1,92.3,92.2c132,0.1,264,0.1,396,0c56.4-0.1,94.6-38.7,94.6-95.1
			C1095.9,929.6,1095.9,768.6,1095.9,607.6z M827.1,62.6c15.9,0,31.8,0.2,47.6-0.2c3.3-0.1,6.5-2.5,9.7-3.9
			c-3.1-1.5-6.2-4.2-9.3-4.3c-31.8-0.3-63.5-0.3-95.3,0c-3.3,0-9.3,2.6-9.3,3.8c0.1,6.6,6,4.3,9.7,4.4
			C795.9,62.7,811.5,62.6,827.1,62.6z M725,69.4c6.2-0.1,11.3-5.2,10.9-11.4c-0.4-6.6-4.2-10.3-10.7-10.7
			c-6.2-0.4-11.4,4.8-11.4,10.9C713.7,64.4,718.8,69.5,725,69.4z"/>
	</g>
	<path class="st1" d="M255.4,160c0-20.6,18.1-38.6,38.8-38.6c31.7-0.1,484.6,0,647.9,0c2.1,0,4.1,0.6,6.2,0.9
		c-0.9,0.7-1.7,1.7-2.7,1.9c-21.8,5.6-38.3,26.5-38.3,48.8c0,89.4,0,178.9,0,268.3c0,214.1-0.1,428.2,0.2,642.3
		c0,24.5-19.3,44.2-44,44.1c-139.8-0.9-533.2,0.6-565.8,0.6c-24.6,0-42.2-17.7-42.2-42.3c0-63.6,0-127.3,0-190.9
		C255.4,776,255.3,258.5,255.4,160z"/>
	<path class="st2" d="M948.3,122.3c28.1-4.1,48.5,6.6,61.1,31.9c3.4,6.9,3.8,14.8,3.8,22.3c0.1,68.8,0.1,137.5,0.1,206.3
		c0,30.7,13.2,48.2,42.9,57c0.7,0.2,1.4,0.6,3.3,1.5c-51.7,0-101.9,0-152.2,0c0-89.4,0-178.9,0-268.3c0-22.2,16.5-43.2,38.3-48.8
		C946.6,124,947.4,123,948.3,122.3z"/>
	<path class="st3" d="M663,255.1c-0.3,18-14.2,33.9-30,48.8c-14.5,13.7-29.1,27.3-43.5,41.1c-3,2.9-5.1,3.1-8.2,0.1
		c-21.8-20.7-47.2-37.7-65.2-62.2c-10.5-14.3-15.5-30.6-7.8-47.9c6.3-14.2,17.7-22.7,33.5-24.2c16.2-1.5,31.5,7.9,39.4,23.8
		c0.7,1.4,1.8,2.6,2.7,3.9c0.9-1.3,2-2.5,2.7-3.9c9.4-18.8,27-27.7,46-23.2C650.1,215.3,663.1,231.7,663,255.1z"/>
	<text transform="matrix(1 0 0 1 495.9674 418.2602)" class="st4 st5 st6">MGTA</text>
	<g>
		<g>
			<path class="st7" d="M429.8,613.4h-85.4c-13.4,0-24.2-10.8-24.2-24.2v-85.4c0-13.4,10.8-24.2,24.2-24.2h85.4
				c13.4,0,24.2,10.8,24.2,24.2v85.4C453.9,602.6,443.1,613.4,429.8,613.4z"/>
			<path class="st8" d="M376.1,555.7c0.5-0.6,1-1.1,1.4-1.6c11.2-11.2,22.4-22.4,33.6-33.6c2.4-2.4,5.8-3.2,8.9-1.9
				c5.4,2.2,6.7,9.1,2.5,13.3c-6,6-12,12-18,18.1c-7.1,7.2-14.3,14.3-21.4,21.4c-1,1-2,2.1-3.2,2.7c-3.2,1.7-7,0.9-9.5-1.7
				c-4.1-4.2-8.2-8.3-12.4-12.4c-2.1-2.1-4.2-4.2-6.3-6.3c-2.3-2.4-3-5.9-1.6-8.9c1.4-3,4.5-4.9,7.8-4.7c2.2,0.1,4,1.1,5.5,2.7
				c4.1,4.1,8.2,8.1,12.2,12.2C375.7,555.1,375.8,555.4,376.1,555.7z"/>
		</g>
		<line class="st9" x1="499" y1="568.3" x2="804.2" y2="568.3"/>
		<line class="st9" x1="499" y1="522.4" x2="723.5" y2="522.4"/>
	</g>
	<g>
		<g>
			<path class="st7" d="M429.8,816.6h-85.4c-13.4,0-24.2-10.8-24.2-24.2V707c0-13.4,10.8-24.2,24.2-24.2h85.4
				c13.4,0,24.2,10.8,24.2,24.2v85.4C453.9,805.8,443.1,816.6,429.8,816.6z"/>
			<path class="st8" d="M376.1,758.9c0.5-0.6,1-1.1,1.4-1.6c11.2-11.2,22.4-22.4,33.6-33.6c2.4-2.4,5.8-3.2,8.9-1.9
				c5.4,2.2,6.7,9.1,2.5,13.3c-6,6-12,12-18,18.1c-7.1,7.2-14.3,14.3-21.4,21.4c-1,1-2,2.1-3.2,2.7c-3.2,1.7-7,0.9-9.5-1.7
				c-4.1-4.2-8.2-8.3-12.4-12.4c-2.1-2.1-4.2-4.2-6.3-6.3c-2.3-2.4-3-5.9-1.6-8.9c1.4-3,4.5-4.9,7.8-4.7c2.2,0.1,4,1.1,5.5,2.7
				c4.1,4.1,8.2,8.1,12.2,12.2C375.7,758.3,375.8,758.6,376.1,758.9z"/>
		</g>
		<line class="st9" x1="499" y1="771.5" x2="804.2" y2="771.5"/>
		<line class="st9" x1="499" y1="725.6" x2="723.5" y2="725.6"/>
	</g>
	<g>
		<g>
			<path class="st7" d="M429.8,1019.8h-85.4c-13.4,0-24.2-10.8-24.2-24.2v-85.4c0-13.4,10.8-24.2,24.2-24.2h85.4
				c13.4,0,24.2,10.8,24.2,24.2v85.4C453.9,1009,443.1,1019.8,429.8,1019.8z"/>
			<path class="st8" d="M376.1,962.1c0.5-0.6,1-1.1,1.4-1.6c11.2-11.2,22.4-22.4,33.6-33.6c2.4-2.4,5.8-3.2,8.9-1.9
				c5.4,2.2,6.7,9.1,2.5,13.3c-6,6-12,12-18,18.1c-7.1,7.2-14.3,14.3-21.4,21.4c-1,1-2,2.1-3.2,2.7c-3.2,1.7-7,0.9-9.5-1.7
				c-4.1-4.2-8.2-8.3-12.4-12.4c-2.1-2.1-4.2-4.2-6.3-6.3c-2.3-2.4-3-5.9-1.6-8.9c1.4-3,4.5-4.9,7.8-4.7c2.2,0.1,4,1.1,5.5,2.7
				c4.1,4.1,8.2,8.1,12.2,12.2C375.7,961.5,375.8,961.8,376.1,962.1z"/>
		</g>
		<line class="st9" x1="499" y1="974.7" x2="804.2" y2="974.7"/>
		<line class="st9" x1="499" y1="928.8" x2="723.5" y2="928.8"/>
	</g>
	<g>
		<path class="st3" d="M997.7,879.1c-4.2-15.1-6.8-29.2-3.5-43.9c6.9-30.8,35.7-47.1,65-36.1c21.1,7.9,37.2,22.8,52.1,39.1
			c3.1,3.4,6.1,4.4,10.6,4.9c21.4,2,40-0.6,54.6-19.7c8.6-11.3,22.1-18.6,35.8-23.9c29.6-11.3,59.1,4.8,65.9,35.7
			c3.3,14.8,0.6,28.8-3.7,44c13.7,0,27,0,40.2,0c16.1,0,20.7,4.6,20.7,20.6c0,13.1,0.1,26.1,0,39.2c-0.1,11.6-5.2,16.5-16.9,16.9
			c-19.7,0.6-19.7,0.6-19.7,20c0,53.5,0,106.9,0,160.4c0,15.7-4.4,20.2-20,20.2c-95.1,0-190.1,0-285.2,0c-15.7,0-20.2-4.4-20.2-20.1
			c0-57.3-0.1-114.7,0.2-172c0-7.1-1.9-9-8.8-8.6c-23.7,1.3-28.9-1.8-27.7-27.4c0.5-10.7,0-21.4,0.1-32.1c0.1-11.2,5.3-16.7,16.9-17
			C968.2,878.9,982.4,879.1,997.7,879.1z M1172.9,969.5c-0.1,56.4-0.1,112.9-0.4,169.3c0,5,2,5.8,6.3,5.8c33.9-0.1,67.7-0.1,101.6,0
			c5,0,6.6-1.6,6.6-6.7c-0.2-56.1-0.2-112.3-0.3-168.4c-1.7-4.6,5.5-13.4-5.3-13.5c-34.4-0.4-68.9-0.1-103.3-0.2
			c-4.2,0-6,1.5-5.6,5.7C1172.9,964.2,1172.8,966.8,1172.9,969.5z M985.6,969.5c-0.1,56.1-0.1,112.3-0.4,168.4
			c0,5.9,2.6,6.7,7.5,6.7c33.3-0.1,66.6-0.2,99.8,0c5.1,0,7.3-0.8,7.3-6.7c-0.3-56.1-0.3-112.3-0.4-168.4c0.1-2.7,0-5.3,0.3-8
			c0.4-4.2-1.2-5.8-5.5-5.7c-34.4,0.1-68.9,0.1-103.3,0c-4.2,0-6,1.4-5.6,5.7C985.6,964.2,985.5,966.8,985.6,969.5z M1160.5,1051.5
			c0,0-0.1,0-0.1,0c0-29.1-0.1-58.2,0.1-87.3c0-5.7-0.8-8.6-7.5-8.3c-11.5,0.6-23.2,0.4-34.7,0.1c-5.1-0.1-6.5,1.6-6.5,6.6
			c0.1,58.5,0.1,117-0.2,175.4c0,6,2.3,6.7,7.3,6.6c11.3-0.3,22.6-0.4,33.8,0c6.1,0.3,8.1-1.3,8-7.7
			C1160.3,1108.5,1160.5,1080,1160.5,1051.5z M1019.5,944.4c20.8,0,41.5-0.2,62.3,0.1c5.3,0.1,7.3-1.3,7.1-6.9
			c-0.4-13.3-0.3-26.7,0-40c0.1-4.8-0.9-6.7-6.2-6.7c-42.4,0.2-84.8,0.2-127.3,0c-5.3,0-7.4,1.7-7.3,7.2c0.3,12.8,0.4,25.5,0,38.3
			c-0.2,6.3,2.1,8.3,8.2,8.2C977.3,944.3,998.4,944.5,1019.5,944.4z M1253,891c-20.8,0-41.5,0.2-62.3-0.1c-6-0.1-7.5,1.8-7.3,7.5
			c0.4,13,0.4,26.1,0,39.1c-0.1,5.4,1.3,7.1,6.9,7.1c41.8-0.2,83.6-0.2,125.4,0c6.8,0,8.7-2.6,8.6-8.9c-0.3-12.1-0.3-24.3,0-36.5
			c0.2-6.1-1.9-8.3-8.2-8.2C1295.1,891.2,1274.1,891,1253,891z M1136.9,891c-10.4,0-20.8,0.2-31.1-0.1c-4.8-0.2-6,1.5-5.9,6.1
			c0.3,13.6,0.3,27.3,0,40.9c-0.1,5,1.3,6.6,6.5,6.6c19.9-0.3,39.7-0.3,59.6,0c5.2,0.1,6.5-1.8,6.4-6.7c-0.3-13.6-0.3-27.3,0-40.9
			c0.1-4.7-1.5-6.1-6.1-6C1156.5,891.2,1146.7,891,1136.9,891z M1005.7,862.8c13.3-19.7,23.9-23.6,44.9-16.9
			c6.7,2.1,13.5,4.6,19.8,7.8c12.1,6,23.8,12.7,36.5,19.4c-0.8-8.5,3.3-17.6-1.8-23.8c-14.6-17.7-31.2-33.4-53.9-40.6
			c-12.2-3.9-23.3-1.5-32.9,7.5C1004.6,828.7,1002.5,844.3,1005.7,862.8z M1166.5,873.1c18.1-10.8,35.8-21.5,55.7-27.5
			c19.7-5.9,30.6-2.3,41.6,13.5c0.6,0.9,1.4,1.6,3.8,4.4c0-7.4,0.2-12.5,0-17.7c-1.6-31.5-27.9-46.9-56.3-33.3
			c-11.9,5.7-21.4,14.6-31.6,22.8C1167.5,845.1,1162.1,856.9,1166.5,873.1z M1089.2,878.8c-14.2-10.2-28.5-18.4-44.7-22.7
			c-15.2-4-26,2.5-29.7,17.1c-0.9,3.7-0.7,5.6,3.7,5.6C1042.1,878.8,1065.7,878.8,1089.2,878.8z M1183.2,878.8c23.6,0,47.1,0,70.7,0
			c4.6,0,4.4-2,3.5-5.6c-4.1-14.8-14.6-21.2-29.7-17.1C1211.6,860.5,1197.3,868.7,1183.2,878.8z M1135.7,878.8c19.2,0,19,0,17.7-19
			c-0.3-3.9-1.5-5.1-5.2-5c-8,0.2-16,0.1-23.9,0c-2.8,0-4.8,0.1-5.3,4C1116.3,877,1117.7,878.8,1135.7,878.8z"/>
		<path class="st3" d="M1099.5,969.5c0.1,56.1,0.1,112.3,0.4,168.4c0,5.9-2.2,6.7-7.3,6.7c-33.3-0.2-66.6-0.2-99.8,0
			c-4.9,0-7.5-0.8-7.5-6.7c0.3-56.1,0.3-112.3,0.4-168.4C1023.6,969.5,1061.5,969.5,1099.5,969.5z"/>
		<path class="st3" d="M1286.7,969.5c0.1,56.1,0.1,112.3,0.3,168.4c0,5-1.6,6.7-6.6,6.7c-33.9-0.2-67.7-0.1-101.6,0
			c-4.3,0-6.3-0.8-6.3-5.8c0.2-56.4,0.3-112.9,0.4-169.3C1210.9,969.5,1248.8,969.5,1286.7,969.5z"/>
		<path class="st4" d="M1160.5,1051.5c0,28.5-0.2,57,0.2,85.5c0.1,6.4-1.9,8-8,7.7c-11.3-0.5-22.6-0.3-33.8,0
			c-5,0.1-7.3-0.6-7.3-6.6c0.3-58.5,0.3-117,0.2-175.4c0-5,1.4-6.8,6.5-6.6c11.6,0.3,23.2,0.5,34.7-0.1c6.8-0.3,7.6,2.5,7.5,8.3
			c-0.2,29.1-0.1,58.2-0.1,87.3C1160.5,1051.5,1160.5,1051.5,1160.5,1051.5z"/>
		<path class="st3" d="M1019.5,944.4c-21.1,0-42.1-0.2-63.2,0.1c-6.2,0.1-8.4-1.9-8.2-8.2c0.4-12.7,0.3-25.5,0-38.3
			c-0.1-5.5,2-7.2,7.3-7.2c42.4,0.1,84.9,0.2,127.3,0c5.4,0,6.3,1.9,6.2,6.7c-0.3,13.3-0.4,26.7,0,40c0.2,5.6-1.8,7-7.1,6.9
			C1061,944.3,1040.2,944.4,1019.5,944.4z"/>
		<path class="st3" d="M1253,891c21.1,0,42.1,0.2,63.2-0.1c6.3-0.1,8.4,2.1,8.2,8.2c-0.3,12.1-0.3,24.3,0,36.5
			c0.2,6.4-1.7,9-8.6,8.9c-41.8-0.2-83.6-0.2-125.4,0c-5.6,0-7.1-1.7-6.9-7.1c0.4-13,0.4-26.1,0-39.1c-0.2-5.7,1.3-7.6,7.3-7.5
			C1211.5,891.3,1232.3,891,1253,891z"/>
		<path class="st4" d="M1136.9,891c9.8,0,19.6,0.2,29.3-0.1c4.6-0.1,6.2,1.3,6.1,6c-0.3,13.6-0.3,27.3,0,40.9
			c0.1,4.9-1.2,6.7-6.4,6.7c-19.9-0.3-39.7-0.3-59.6,0c-5.1,0.1-6.6-1.6-6.5-6.6c0.3-13.6,0.3-27.3,0-40.9c-0.1-4.6,1.2-6.2,5.9-6.1
			C1116.2,891.2,1126.5,891,1136.9,891z"/>
		<path class="st4" d="M1005.7,862.8c-3.2-18.5-1.1-34.1,12.5-46.7c9.6-8.9,20.6-11.3,32.9-7.5c22.7,7.2,39.4,22.9,53.9,40.6
			c5.1,6.2,1,15.3,1.8,23.8c-12.6-6.8-24.4-13.4-36.5-19.4c-6.3-3.2-13-5.6-19.8-7.8C1029.7,839.3,1019,843.1,1005.7,862.8z"/>
		<path class="st4" d="M1166.5,873.1c-4.4-16.2,1-28,13.2-37.8c10.1-8.2,19.6-17.1,31.6-22.8c28.5-13.6,54.7,1.9,56.3,33.3
			c0.3,5.1,0,10.3,0,17.7c-2.4-2.8-3.2-3.5-3.8-4.4c-11-15.8-21.8-19.5-41.6-13.5C1202.3,851.6,1184.6,862.3,1166.5,873.1z"/>
		<path class="st10" d="M1099.5,969.5c-37.9,0-75.9,0-113.8,0c-0.1-2.7-0.1-5.3-0.3-8c-0.4-4.3,1.4-5.7,5.6-5.7
			c34.4,0.1,68.9,0.1,103.3,0c4.3,0,5.9,1.6,5.5,5.7C1099.5,964.2,1099.5,966.9,1099.5,969.5z"/>
		<path class="st10" d="M1286.7,969.5c-37.9,0-75.9,0-113.8,0c-0.1-2.7,0-5.3-0.3-8c-0.4-4.2,1.3-5.7,5.6-5.7
			c34.4,0.1,68.9-0.2,103.3,0.2C1292.2,956.1,1285,964.9,1286.7,969.5z"/>
		<path class="st11" d="M1089.2,878.8c-23.6,0-47.1,0-70.7,0c-4.4,0-4.7-1.9-3.7-5.6c3.8-14.7,14.5-21.1,29.7-17.1
			C1060.7,860.4,1075.1,868.7,1089.2,878.8z"/>
		<path class="st11" d="M1183.2,878.8c14.1-10,28.4-18.3,44.5-22.6c15.1-4.1,25.6,2.3,29.7,17.1c1,3.6,1.1,5.6-3.5,5.6
			C1230.4,878.7,1206.8,878.8,1183.2,878.8z"/>
		<path class="st4" d="M1135.7,878.8c-18,0-19.3-1.8-16.8-20c0.5-3.9,2.5-4,5.3-4c8,0,16,0.2,23.9,0c3.7-0.1,4.9,1.1,5.2,5
			C1154.7,878.8,1154.8,878.8,1135.7,878.8z"/>
	</g>
	<g>
		<g>
			<path class="st12" d="M48.6,730L32,742.2c0,0,31.3,30.7,34.2,33.2c35.2,30.4,30.2-5.3,30.2-5.3L48.6,730z"/>
			<g>
				<path class="st12" d="M57.9,701.7c-2.8-1.5-6.3-0.8-7.6,1.5l-4.6,7.9c0,0-2-0.2-3.3-0.7l-6-18.7c-0.7-2.2-3-3.5-5.2-3
					c-2.5,0.6-4.1,3.2-3.3,5.7l4.4,15.7c-0.8,0.3-1.7,0.6-2.5,1.1L20,697.6c-1.3-1.9-3.9-2.4-5.9-1.2h0c-2.3,1.3-2.9,4.3-1.4,6.4
					l9.4,14c-0.5,0.4-0.9,0.8-1.4,1.2l-14.5-6.1c-2.1-0.9-4.6,0-5.7,2v0c-1.2,2.3-0.3,5.2,2.1,6.2l14,6.5c-0.1,0.5-0.1,1-0.1,1.5
					l-9.4,0.8c-1.7,0.2-3.1,1.6-3.1,3.3c0,2,1.6,3.6,3.6,3.4l10.5-0.5l2.4,5c2.4,4.9,8.6,6.5,13,3.2L51,730.4
					c3.5-2.6,4.4-7.2,2.6-10.8l6.6-12C61.4,705.6,60.4,703.1,57.9,701.7z"/>
				<path class="st13" d="M45.7,711.2c0,0-9.1,0.5-10.1,14.6"/>
			</g>
		</g>
		<g>
			<path class="st12" d="M97.6,769.8l16.4-140.3L95.4,617c-3,1.9-17.2,24.2-17.2,24.2v128.1L97.6,769.8z"/>
		</g>
		<g>
			<path class="st12" d="M48.6,730L32,742.2c0,0,31.3,30.7,34.2,33.2c35.2,30.4,30.2-5.3,30.2-5.3L48.6,730z"/>
			<g>
				<path class="st12" d="M57.9,701.7c-2.8-1.5-6.3-0.8-7.6,1.5l-4.6,7.9c0,0-2-0.2-3.3-0.7l-6-18.7c-0.7-2.2-3-3.5-5.2-3
					c-2.5,0.6-4.1,3.2-3.3,5.7l4.4,15.7c-0.8,0.3-1.7,0.6-2.5,1.1L20,697.6c-1.3-1.9-3.9-2.4-5.9-1.2h0c-2.3,1.3-2.9,4.3-1.4,6.4
					l9.4,14c-0.5,0.4-0.9,0.8-1.4,1.2l-14.5-6.1c-2.1-0.9-4.6,0-5.7,2v0c-1.2,2.3-0.3,5.2,2.1,6.2l14,6.5c-0.1,0.5-0.1,1-0.1,1.5
					l-9.4,0.8c-1.7,0.2-3.1,1.6-3.1,3.3c0,2,1.6,3.6,3.6,3.4l10.5-0.5l2.4,5c2.4,4.9,8.6,6.5,13,3.2L51,730.4
					c3.5-2.6,4.4-7.2,2.6-10.8l6.6-12C61.4,705.6,60.4,703.1,57.9,701.7z"/>
				<path class="st13" d="M45.7,711.2c0,0-9.1,0.5-10.1,14.6"/>
			</g>
		</g>
		<g>
			<path class="st12" d="M254.5,730l16.6,12.2c0,0-31.3,30.7-34.2,33.2c-35.2,30.4-30.2-5.3-30.2-5.3L254.5,730z"/>
			<g>
				<path class="st12" d="M245.2,701.7c2.8-1.5,6.3-0.8,7.6,1.5l4.6,7.9c0,0,2-0.2,3.3-0.7l6-18.7c0.7-2.2,3-3.5,5.2-3
					c2.5,0.6,4.1,3.2,3.3,5.7l-4.4,15.7c0.8,0.3,1.7,0.6,2.5,1.1l9.8-13.5c1.3-1.9,3.9-2.4,5.9-1.2h0c2.3,1.3,2.9,4.3,1.4,6.4
					l-9.4,14c0.5,0.4,0.9,0.8,1.4,1.2l14.5-6.1c2.1-0.9,4.6,0,5.7,2v0c1.2,2.3,0.3,5.2-2.1,6.2l-14,6.5c0.1,0.5,0.1,1,0.1,1.5
					l9.4,0.8c1.7,0.2,3.1,1.6,3.1,3.3c0,2-1.6,3.6-3.6,3.4l-10.5-0.5l-2.4,5c-2.4,4.9-8.6,6.5-13,3.2l-17.4-12.9
					c-3.5-2.6-4.4-7.2-2.6-10.8l-6.6-12C241.8,705.6,242.8,703.1,245.2,701.7z"/>
				<path class="st13" d="M257.5,711.2c0,0,9.1,0.5,10.1,14.6"/>
			</g>
		</g>
		<path class="st4" d="M168.7,1222.1h42.1c0-15.2-16.9-24.6-16.9-24.6h-25.2V1222.1z"/>
		<path class="st4" d="M132.8,1222.1H90.7c0-15.2,16.9-24.6,16.9-24.6h25.2V1222.1z"/>
		<polygon class="st3" points="93.8,1188.9 93.8,815 207.8,815 207.8,1188.9 168.7,1188.9 168.7,879.5 133,879.5 133,1188.9 		"/>
		
			<rect x="143.4" y="813.5" transform="matrix(-1 -1.224647e-16 1.224647e-16 -1 300.9528 1692.9613)" class="st14" width="14.2" height="66"/>
		<rect x="93.8" y="1173.6" class="st14" width="39" height="24.8"/>
		<rect x="168.7" y="1173.6" class="st14" width="39.1" height="24.8"/>
		<g>
			<path class="st12" d="M205.5,769.8l-16.4-140.3l18.7-12.4c3,1.9,17.2,24.2,17.2,24.2v128.1L205.5,769.8z"/>
		</g>
		<g>
			<path class="st12" d="M254.5,730l16.6,12.2c0,0-31.3,30.7-34.2,33.2c-35.2,30.4-30.2-5.3-30.2-5.3L254.5,730z"/>
			<g>
				<path class="st12" d="M245.2,701.7c2.8-1.5,6.3-0.8,7.6,1.5l4.6,7.9c0,0,2-0.2,3.3-0.7l6-18.7c0.7-2.2,3-3.5,5.2-3
					c2.5,0.6,4.1,3.2,3.3,5.7l-4.4,15.7c0.8,0.3,1.7,0.6,2.5,1.1l9.8-13.5c1.3-1.9,3.9-2.4,5.9-1.2h0c2.3,1.3,2.9,4.3,1.4,6.4
					l-9.4,14c0.5,0.4,0.9,0.8,1.4,1.2l14.5-6.1c2.1-0.9,4.6,0,5.7,2v0c1.2,2.3,0.3,5.2-2.1,6.2l-14,6.5c0.1,0.5,0.1,1,0.1,1.5
					l9.4,0.8c1.7,0.2,3.1,1.6,3.1,3.3c0,2-1.6,3.6-3.6,3.4l-10.5-0.5l-2.4,5c-2.4,4.9-8.6,6.5-13,3.2l-17.4-12.9
					c-3.5-2.6-4.4-7.2-2.6-10.8l-6.6-12C241.8,705.6,242.8,703.1,245.2,701.7z"/>
				<path class="st13" d="M257.5,711.2c0,0,9.1,0.5,10.1,14.6"/>
			</g>
		</g>
		<line class="st15" x1="91" y1="617" x2="91.1" y2="699.2"/>
		<polygon class="st16" points="93.7,617 93.8,712.3 93.8,864.4 207.8,864.4 207.8,617 		"/>
		<path class="st16" d="M207.8,733.4l33-16.2l-6.9-53.6c0,0-4.4-46.5-26-46.5V733.4z"/>
		<path class="st16" d="M95.4,733.4l-33-16.2l6.9-53.6c0,0,4.4-46.5,26-46.5V733.4z"/>
		<g>
			<path class="st17" d="M72.6,500c-14.1,0.6-25.2,15.6-25.2,32.7c0,15.6,12.4,28.5,25.2,29.7C72.8,538.5,72.8,500,72.6,500z"/>
			<path class="st17" d="M229.5,500c14.1,0.6,25.2,15.6,25.2,32.7c0,15.6-12.4,28.5-25.2,29.7C229.3,538.5,229.4,500,229.5,500z"/>
			<path class="st12" d="M72.4,516.8c0,0-18.5-117.7,83.4-117.7c91.8,0,73.8,117.7,73.8,117.7v43.7c0,25.3-20.5,45.9-45.9,45.9
				h-25.4v10.7h19.4l-5.8,5.9c-11.2,11.3-29.5,11.5-40.9,0.3l-6.2-6.1h17.9v-10.7h-24.4c-25.3,0-45.9-20.5-45.9-45.9V516.8z"/>
			<g>
				<g>
					<g>
						<g>
							<path class="st18" d="M117.7,535.7L117.7,535.7c-3.9,0-7.1-3.2-7.1-7.1v-11.2c0-3.9,3.2-7.1,7.1-7.1h0c3.9,0,7.1,3.2,7.1,7.1
								v11.2C124.8,532.6,121.6,535.7,117.7,535.7z"/>
							<path class="st19" d="M121.1,515.8c0,1.9-1.5,3.4-3.4,3.4c-1.9,0-3.4-1.5-3.4-3.4s1.5-3.4,3.4-3.4
								C119.5,512.4,121.1,513.9,121.1,515.8z"/>
						</g>
						<g>
							<path class="st18" d="M184.5,535.7L184.5,535.7c-3.9,0-7.1-3.2-7.1-7.1v-11.2c0-3.9,3.2-7.1,7.1-7.1l0,0
								c3.9,0,7.1,3.2,7.1,7.1v11.2C191.6,532.6,188.4,535.7,184.5,535.7z"/>
							<path class="st19" d="M187.8,515.8c0,1.9-1.5,3.4-3.4,3.4c-1.9,0-3.4-1.5-3.4-3.4s1.5-3.4,3.4-3.4
								C186.3,512.4,187.8,513.9,187.8,515.8z"/>
						</g>
					</g>
				</g>
				<path class="st20" d="M134.3,562.3c0,0,17.6,15.8,33.3-3.1"/>
				<path class="st17" d="M138.7,544.6h24.7c0,0-4.1,8.1-12.3,8.1C142.8,552.6,138.7,544.6,138.7,544.6z"/>
			</g>
			<g>
				
					<ellipse transform="matrix(0.7904 -0.6126 0.6126 0.7904 -212.3327 175.3422)" class="st0" cx="150.1" cy="397.9" rx="28.8" ry="28.8"/>
				
					<ellipse transform="matrix(0.2288 -0.9735 0.9735 0.2288 -329.1792 415.3145)" class="st0" cx="97.5" cy="415.4" rx="28.8" ry="28.8"/>
				<circle class="st0" cx="121.3" cy="397.9" r="21.7"/>
				<circle class="st0" cx="178.8" cy="397.9" r="21.7"/>
				
					<ellipse transform="matrix(0.7071 -0.7071 0.7071 0.7071 -234.4173 264.9152)" class="st0" cx="202.6" cy="415.4" rx="28.8" ry="28.8"/>
			</g>
			<path class="st0" d="M151.1,396.3c-91.9,0-80.4,104.5-80.4,104.5s22.6-1.6,23.5-32.1c0.2-6.2,5.7-10.9,11.8-9.9l23.1,3.8
				c13.8,2.3,27.9,2.3,41.7,0l23.1-3.8c6-1,11.7,3.5,11.8,9.6c0.7,30.8,25.4,32.4,25.4,32.4S243,396.3,151.1,396.3z"/>
		</g>
	</g>
</g>
</svg>
