<?xml version="1.0" encoding="utf-8"?>
<!-- Generator: Adobe Illustrator 25.0.1, SVG Export Plug-In . SVG Version: 6.00 Build 0)  -->
<svg version="1.1" id="Capa_1" xmlns="http://www.w3.org/2000/svg" xmlns:xlink="http://www.w3.org/1999/xlink" x="0px" y="0px"
	 viewBox="0 0 800 800" style="enable-background:new 0 0 800 800;" xml:space="preserve">
<style type="text/css">
	.st0{fill:#F3F4F6;}
</style>
<desc>Created with Sketch.</desc>
<g id="Page-1">
	<g id="Dribbble-Light-Preview" transform="translate(-59.000000, -160.000000)">
		<g id="icons" transform="translate(56.000000, 160.000000)">
			<path id="list-_x5B__x23_1540_x5D_" class="st0" d="M123,570.4c66.3,0,120,51.2,120,114.3S189.3,799,123,799S3,747.8,3,684.7
				S56.7,570.4,123,570.4L123,570.4z M123,646.6c-22,0-40,17.1-40,38.1c0,21,18,38.1,40,38.1s40-17.1,40-38.1
				C163,663.7,145,646.6,123,646.6L123,646.6z M123,37c66.3,0,120,51.2,120,114.3s-53.7,114.3-120,114.3S3,214.5,3,151.3
				S56.7,37,123,37L123,37z M123,113.2c-22,0-40,17.1-40,38.1s18,38.1,40,38.1s40-17.1,40-38.1S145,113.2,123,113.2L123,113.2z
				 M123,303.7c66.3,0,120,51.2,120,114.3s-53.7,114.3-120,114.3S3,481.1,3,418S56.7,303.7,123,303.7L123,303.7z M123,379.9
				c-22,0-40,17.1-40,38.1c0,21,18,38.1,40,38.1s40-17.1,40-38.1C163,397,145,379.9,123,379.9L123,379.9z M323,722.8h480v-76.2H323
				V722.8z M323,189.4h480v-76.2H323V189.4z M323,456.1h480v-76.2H323V456.1z"/>
		</g>
	</g>
</g>
</svg>
