<?xml version="1.0" encoding="utf-8"?>
<!-- Generator: Adobe Illustrator 25.0.1, SVG Export Plug-In . SVG Version: 6.00 Build 0)  -->
<svg version="1.1" id="Capa_1" xmlns="http://www.w3.org/2000/svg" xmlns:xlink="http://www.w3.org/1999/xlink" x="0px" y="0px"
	 viewBox="0 0 209.6 209.6" style="enable-background:new 0 0 209.6 209.6;" xml:space="preserve">
<style type="text/css">
	.st0{fill:#F9D035;}
	.st1{fill:#D0456C;}
</style>
<path class="st0" d="M127.4,204.8H82.2c-42.7,0-77.4-34.7-77.4-77.4V82.2c0-42.7,34.7-77.4,77.4-77.4h45.2
	c42.7,0,77.4,34.7,77.4,77.4v45.2C204.8,170.2,170.2,204.8,127.4,204.8z"/>
<path class="st1" d="M184,88.2c-0.3,18-14.2,33.9-30,48.8c-14.5,13.7-29.1,27.3-43.5,41.1c-3,2.9-5.1,3.1-8.2,0.1
	c-21.8-20.7-47.2-37.7-65.2-62.2c-10.5-14.3-15.5-30.6-7.8-47.9C35.6,53.9,47,45.4,62.8,43.9c16.2-1.5,31.5,7.9,39.4,23.8
	c0.7,1.4,1.8,2.6,2.7,3.9c0.9-1.3,2-2.5,2.7-3.9c9.4-18.8,27-27.7,46-23.2C171.1,48.4,184.1,64.8,184,88.2z"/>
</svg>
